<svg width="20" height="20" viewBox="0 0 20 20" fill="none" xmlns="http://www.w3.org/2000/svg">
<path d="M11.4573 10L19.698 1.75925C20.1007 1.35697 20.1007 0.70425 19.698 0.301968C19.2954 -0.100656 18.6434 -0.100656 18.2407 0.301968L10 8.54272L1.75925 0.301968C1.35697 -0.100656 0.70425 -0.100656 0.301968 0.301968C-0.100656 0.70425 -0.100656 1.35697 0.301968 1.75925L8.54272 10L0.301968 18.2407C-0.100656 18.643 -0.100656 19.2958 0.301968 19.698C0.502937 19.8993 0.767117 20 1.03061 20C1.2941 20 1.55794 19.8993 1.75925 19.698L10 11.4573L18.2407 19.698C18.4421 19.8993 18.7059 20 18.9694 20C19.2329 20 19.4967 19.8993 19.698 19.698C20.1007 19.2958 20.1007 18.643 19.698 18.2407L11.4573 10Z" fill="#222222"/>
</svg>
