<svg width="52" height="25" viewBox="0 0 52 25" fill="none" xmlns="http://www.w3.org/2000/svg">
<path d="M10.731 10.7471L9.66654 11.8116H11.1719H20.5039V13.1892H11.1719H9.66654L10.731 14.2537L13.2991 16.8217L12.3252 17.7955L7.03002 12.4999L12.3251 7.20435L13.2992 8.17898L10.731 10.7471Z" fill="#222222"/>
<path d="M3.64567 5.51726C5.51095 3.65199 7.99083 2.62473 10.6283 2.62473H31.6254H31.8336L32 2.49971C34.1766 0.864393 36.77 0 39.5001 0C41.188 0 42.8251 0.330405 44.3658 0.982113C45.8542 1.61169 47.1911 2.51312 48.3392 3.66134C49.4873 4.80956 50.3886 6.1464 51.018 7.63482C51.6696 9.17543 52 10.8123 52 12.5C52 14.1878 51.6697 15.8247 51.0181 17.3654C50.3886 18.8538 49.4873 20.1907 48.3392 21.3388C47.1911 22.487 45.8542 23.3884 44.3658 24.0179C42.8251 24.6696 41.188 25 39.5001 25C36.7695 25 34.1758 24.1357 31.9994 22.5003L31.8331 22.3753H31.6249H10.6284C7.99083 22.3753 5.51101 21.348 3.64574 19.4827C1.78046 17.6174 0.7532 15.1376 0.7532 12.5C0.753138 9.86242 1.78039 7.38254 3.64567 5.51726ZM39.5001 23.6223C45.6329 23.6223 50.6224 18.6328 50.6224 12.5C50.6224 6.36713 45.6329 1.37768 39.5001 1.37768C33.3672 1.37768 28.3777 6.36713 28.3777 12.5C28.3777 18.6328 33.3672 23.6223 39.5001 23.6223ZM10.6283 20.9976H29.0007H30.2489L29.4993 19.9996C27.8643 17.8229 27.0001 15.2295 27.0001 12.5C27.0001 9.77039 27.8643 7.17709 29.4993 5.00042L30.2489 4.00241H29.0007H10.6283C5.9428 4.00241 2.13076 7.81439 2.13076 12.5C2.13076 17.1855 5.9428 20.9976 10.6283 20.9976Z" fill="#222222"/>
</svg>
