<?xml version="1.0" encoding="utf-8"?>
<!-- Generator: Adobe Illustrator 19.0.0, SVG Export Plug-In . SVG Version: 6.00 Build 0)  -->
<svg version="1.1" id="Layer_1" xmlns="http://www.w3.org/2000/svg" xmlns:xlink="http://www.w3.org/1999/xlink" x="0px" y="0px"
	 viewBox="-948 630 22 22" style="enable-background:new -948 630 22 22;" xml:space="preserve">
<style type="text/css">
	.st0{fill:#222222;}
</style>
<path class="st0" d="M-929.5,632.3h-1.5v-0.8c0-0.3-0.3-0.6-0.6-0.6s-0.6,0.3-0.6,0.6v0.8h-9.5v-0.8c0-0.3-0.3-0.6-0.6-0.6
	s-0.6,0.3-0.6,0.6v0.8h-1.5c-1.5,0-2.6,1.1-2.6,2.5v13.8c0,1.4,1.2,2.5,2.6,2.5h11.2c0.2,0,0.3-0.1,0.4-0.2l5.8-5.2
	c0.1-0.1,0.2-0.3,0.2-0.5v-10.4C-926.8,633.5-928,632.3-929.5,632.3z M-928.1,638.8v5.9h-3.8c-1.2,0-2.1,0.9-2.1,2.1v3.2h-10.5
	c-0.7,0-1.3-0.6-1.3-1.3v-9.8H-928.1z M-932.8,646.7c0-0.4,0.4-0.8,0.8-0.8h2.8l-3.6,3.2V646.7z M-942.4,635.5
	c0.4,0,0.6-0.3,0.6-0.6v-1.3h9.5v1.3c0,0.3,0.3,0.6,0.6,0.6s0.6-0.3,0.6-0.6v-1.3h1.5c0.7,0,1.3,0.6,1.3,1.3v2.7h-17.7v-2.7
	c0-0.7,0.6-1.3,1.3-1.3h1.5v1.3C-943,635.2-942.7,635.5-942.4,635.5z"/>
</svg>
