<?xml version="1.0" encoding="utf-8"?>
<!-- Generator: Adobe Illustrator 19.0.0, SVG Export Plug-In . SVG Version: 6.00 Build 0)  -->
<svg version="1.1" id="Layer_1" xmlns="http://www.w3.org/2000/svg" xmlns:xlink="http://www.w3.org/1999/xlink" x="0px" y="0px"
	 viewBox="-926 604.5 67 49.9" style="enable-background:new -926 604.5 67 49.9;" xml:space="preserve">
<style type="text/css">
	.st0{fill:#222222;}
</style>
<path class="st0" d="M-862,620.1l-11.2,12.2c0,0,0,0,0,0c-0.1,0.2-0.3,0.3-0.5,0.4l0,0c-0.6,0.3-1.3,0.2-1.8-0.2
	c-0.7-0.6-0.7-1.6-0.1-2.3l0,0l7.1-7.8l1-1.1l-1.6-0.1c-13.4-0.9-23.2,1.5-30.6,5.2l0,0c-8.3,4.2-13.4,10.2-16.5,15.3l0,0
	c-3,5-4,9.1-4.2,9.6l0,0l0,0c-0.1,0.5-0.4,0.9-0.8,1.1c-0.3,0.2-0.7,0.2-1.1,0.1c-0.9-0.2-1.4-1.1-1.2-1.9c0,0,0,0,0,0
	c0.1-0.3,1-4.6,4.3-10.1h0c3.3-5.6,8.9-12.4,18.1-17.1l0,0c7.9-4,18.4-6.5,32.2-5.6l2.1,0.1l-1.6-1.4l-7.9-7.3l0,0
	c-0.6-0.6-0.7-1.6-0.1-2.3c0.6-0.7,1.6-0.7,2.3-0.1l11.9,11C-861.5,618.4-861.4,619.4-862,620.1z"/>
</svg>
