<svg width="48" height="48" viewBox="0 0 48 48" fill="none" xmlns="http://www.w3.org/2000/svg">
<path d="M33.2967 14.0463H14.703C13.5914 14.0463 12.6821 14.9556 12.6821 16.0671C12.6821 17.1787 13.5914 18.088 14.703 18.088H33.2462C34.3577 18.088 35.267 17.1787 35.267 16.0671C35.267 14.9559 34.4081 14.0463 33.2965 14.0463H33.2967Z" fill="white"/>
<path d="M33.2967 21.9789H14.703C13.5914 21.9789 12.6821 22.8882 12.6821 23.9998C12.6821 25.1114 13.5914 26.0207 14.703 26.0207H33.2462C34.3577 26.0207 35.267 25.1114 35.267 23.9998C35.267 22.8882 34.4081 21.9789 33.2965 21.9789H33.2967Z" fill="white"/>
<path d="M33.2967 29.9115H14.703C13.5914 29.9115 12.6821 30.8208 12.6821 31.9324C12.6821 33.044 13.5914 33.9532 14.703 33.9532H33.2462C34.3577 33.9532 35.267 33.044 35.267 31.9324C35.267 30.8212 34.4081 29.9115 33.2965 29.9115H33.2967Z" fill="white"/>
<path d="M24 0C10.7621 0 0 10.7621 0 24C0 37.2379 10.7621 48 24 48C37.2379 48 48 37.2379 48 24C48 10.7621 37.2379 0 24 0ZM24 44.0084C12.9853 44.0084 3.99158 35.0652 3.99158 24C3.99158 12.9348 12.9856 3.99158 24 3.99158C35.0144 3.99158 44.0084 12.9856 44.0084 24C44.0084 35.0144 35.0144 44.0084 24 44.0084Z" fill="white"/>
</svg>
