<svg width="24" height="20" viewBox="0 0 24 20" fill="none" xmlns="http://www.w3.org/2000/svg">
<path d="M0.0378072 15.829L0.0378075 8.7863C0.0378076 6.84905 1.84899 5.22909 3.62376 4.75647L10.9602 0.623592C11.3868 0.220869 11.9409 -5.27121e-07 12.5288 -5.01423e-07C13.1416 -4.74637e-07 13.7177 0.240017 14.151 0.67589C14.5843 1.11176 14.823 1.69125 14.823 2.3077C14.823 2.92415 14.5844 3.50364 14.151 3.93951C14.1296 3.96098 14.1064 3.98052 14.0816 3.9979L13.199 4.6154L19.1565 4.6154C20.4216 4.6154 21.4508 5.65063 21.4508 6.9231C21.4508 7.3971 21.3079 7.83824 21.0633 8.20515L21.7057 8.20515C22.9708 8.20515 24 9.24038 24 10.5129C24 11.7853 22.9708 12.8205 21.7057 12.8205L21.5732 12.8205C21.8178 13.1874 21.9606 13.6286 21.9606 14.1025C21.9606 15.375 20.9315 16.4102 19.6664 16.4102L19.024 16.4102C19.2686 16.7772 19.4115 17.2183 19.4115 17.6923C19.4115 18.9648 18.3823 20 17.1172 20L4.69427 20C2.49624 20 0.0378071 18.2163 0.0378072 15.829ZM13.8033 2.3077C13.8033 1.96524 13.6708 1.64327 13.43 1.40115C13.1893 1.15897 12.8692 1.02565 12.5288 1.02565C12.1884 1.02565 11.8683 1.15897 11.6276 1.40115C11.5944 1.43441 11.557 1.46296 11.5162 1.48593L4.06413 5.68394C4.02441 5.70624 3.98204 5.72318 3.93792 5.73419C2.55269 6.0803 1.05759 7.34564 1.05759 8.7863L1.05759 15.829C1.05759 17.6004 3.01254 18.9743 4.69438 18.9743L17.1172 18.9743C17.82 18.9743 18.3918 18.3992 18.3918 17.6923C18.3918 16.9854 17.82 16.4102 17.1172 16.4102C16.8356 16.4102 16.6074 16.1806 16.6074 15.8974C16.6074 15.6142 16.8356 15.3845 17.1172 15.3845L19.6664 15.3845C20.3692 15.3845 20.941 14.8094 20.941 14.1025C20.941 13.3956 20.3692 12.8204 19.6664 12.8204C19.3848 12.8204 19.1565 12.5909 19.1565 12.3076C19.1565 12.0244 19.3848 11.7948 19.6664 11.7948L21.7057 11.7948C22.4085 11.7948 22.9803 11.2196 22.9803 10.5127C22.9803 9.80581 22.4085 9.23069 21.7057 9.23069L19.1565 9.23069C18.8749 9.23069 18.6467 9.00108 18.6467 8.71784C18.6467 8.4346 18.8749 8.20499 19.1565 8.20499C19.8593 8.20499 20.4311 7.62987 20.4311 6.92294C20.4311 6.216 19.8593 5.64089 19.1565 5.64089L11.5733 5.64089C11.3505 5.64089 11.1534 5.49539 11.0868 5.2815C11.0201 5.06771 11.0992 4.83505 11.2821 4.70705L13.459 3.18398C13.6814 2.94574 13.8033 2.63615 13.8033 2.3077Z" fill="white"/>
<path d="M12.7837 15.8974C12.7837 15.6142 13.012 15.3845 13.2936 15.3845L17.1173 15.3845C17.3989 15.3845 17.6272 15.6141 17.6272 15.8974C17.6272 16.1806 17.3989 16.4102 17.1173 16.4102L13.2936 16.4102C13.012 16.4102 12.7837 16.1806 12.7837 15.8974Z" fill="white"/>
<path d="M12.7835 12.3075C12.7835 12.0243 13.0118 11.7947 13.2934 11.7947L19.6663 11.7947C19.9479 11.7947 20.1761 12.0242 20.1761 12.3075C20.1761 12.5907 19.9479 12.8203 19.6663 12.8203L13.2934 12.8203C13.0118 12.8203 12.7835 12.5907 12.7835 12.3075Z" fill="white"/>
<path d="M12.7836 8.71793C12.7836 8.43469 13.0119 8.20508 13.2935 8.20508L19.1565 8.20508C19.4381 8.20508 19.6664 8.43469 19.6664 8.71793C19.6664 9.00117 19.4382 9.23078 19.1565 9.23078L13.2935 9.23078C13.0119 9.23078 12.7836 9.00117 12.7836 8.71793Z" fill="white"/>
<path d="M4.11639 13.3332C4.11639 13.1103 4.26198 12.9052 4.48552 12.8406C6.90005 12.1425 8.43075 10.6651 9.03502 8.44962C9.49691 6.75594 9.22644 5.23769 9.22352 5.22258C9.19618 5.07282 9.23596 4.91798 9.33279 4.80082C9.42963 4.68366 9.57323 4.61548 9.72464 4.61548L15.5878 4.61548C15.8694 4.61548 16.0977 4.84509 16.0977 5.12833C16.0977 5.41157 15.8694 5.64113 15.5878 5.64113L10.2989 5.64113C10.3506 6.30567 10.3607 7.44068 10.0291 8.68139C9.55023 10.4729 8.24858 12.8198 4.76727 13.8264C4.49669 13.9046 4.21422 13.7473 4.13637 13.4752C4.12283 13.4278 4.11639 13.38 4.11639 13.3332Z" fill="white"/>
<path d="M12.7836 17.4359L12.7836 7.17955C12.7836 6.89631 13.0119 6.66675 13.2935 6.66675C13.5751 6.66675 13.8033 6.89631 13.8033 7.17955L13.8033 17.436C13.8033 17.7192 13.5751 17.9488 13.2935 17.9488C13.0119 17.9488 12.7836 17.7191 12.7836 17.4359Z" fill="white"/>
</svg>
