<svg width="31" height="25" viewBox="0 0 31 25" fill="none" xmlns="http://www.w3.org/2000/svg">
<path d="M10.1067 24.3127C6.73824 24.3127 3.60411 23.3258 0.9646 21.6336C1.43107 21.6889 1.9059 21.7161 2.38683 21.7161C5.18157 21.7161 7.75285 20.7631 9.79475 19.1631C7.18391 19.1149 4.9822 17.3903 4.22277 15.0209C4.58625 15.0902 4.95988 15.1285 5.34417 15.1285C5.8885 15.1285 6.41559 15.0552 6.91605 14.9184C4.18751 14.3723 2.13115 11.9603 2.13115 9.07175C2.13115 9.04537 2.13115 9.02001 2.13267 8.99515C2.93649 9.44234 3.85573 9.71146 4.83407 9.74114C3.23301 8.67225 2.17985 6.84595 2.17985 4.77716C2.17985 3.68442 2.47485 2.66043 2.98773 1.77924C5.92883 5.38795 10.3244 7.76164 15.2813 8.01047C15.179 7.57394 15.1268 7.11888 15.1268 6.65064C15.1268 3.35823 17.7977 0.687012 21.0919 0.687012C22.8071 0.687012 24.3572 1.4117 25.4456 2.57115C26.8039 2.30329 28.0801 1.80689 29.2327 1.12381C28.7867 2.5161 27.8414 3.68468 26.6099 4.42306C27.8163 4.27848 28.9663 3.95888 30.035 3.48404C29.2367 4.67951 28.2239 5.73039 27.0599 6.57227C27.0715 6.82795 27.0769 7.08489 27.0769 7.34311C27.0769 15.2243 21.0772 24.3127 10.1067 24.3127Z" fill="#222222"/>
</svg>
