<svg width="22" height="31" viewBox="0 0 22 31" fill="none" xmlns="http://www.w3.org/2000/svg">
<path d="M9.06246 6.80622C7.8171 6.80622 6.80444 7.81891 6.80444 9.0643V19.2962L6.12907 17.9454C5.74194 17.1878 5.09549 16.416 4.37504 16.2216C3.76691 16.054 3.21001 16.2704 2.7723 16.524C2.21743 16.8498 1.85477 17.3142 1.71383 17.7841C1.55261 18.4427 1.68804 19.106 1.98601 19.8304C3.46043 23.4504 5.71586 27.7519 8.1754 30.5663C8.2354 30.6353 8.32588 30.6768 8.41734 30.6772H17.1268C17.196 30.675 17.2643 30.6499 17.3184 30.6067C18.1653 29.9792 18.8975 28.8487 19.5058 27.4817C20.1141 26.1146 20.603 24.5187 20.8264 22.9655C21.0583 21.3528 21.0829 19.9103 20.7457 18.7216C20.4085 17.5329 19.6537 16.6237 18.4574 16.4837C18.0395 16.4801 17.676 16.5094 17.3486 16.6954C17.2375 16.2016 17.0114 15.7921 16.6934 15.5663C16.281 15.2737 15.8245 15.1881 15.5039 15.1934C15.0582 15.2008 14.6988 15.4383 14.385 15.768C14.2543 15.412 14.0729 15.1146 13.8204 14.9313C13.4148 14.6366 12.953 14.5482 12.6108 14.5482C12.1573 14.5482 11.7005 14.7196 11.3205 15.0018V9.0643C11.2925 7.59867 10.1111 6.79788 9.06246 6.80622V6.80622ZM9.06246 7.45138C9.96155 7.45138 10.6754 8.16517 10.6754 9.0643V15.8385C10.6786 15.9831 10.7893 16.1186 10.9307 16.1487C11.0721 16.1788 11.2291 16.1006 11.2902 15.9696C11.5017 15.5301 12.1278 15.1934 12.6108 15.1934C12.8292 15.1934 13.1768 15.2561 13.4374 15.4454C13.698 15.6346 13.9011 15.9262 13.9011 16.4837C13.8979 16.6299 14.009 16.7701 14.1515 16.8028C14.294 16.8355 14.4542 16.7573 14.516 16.6248C14.8084 16.0399 15.0832 15.8459 15.5241 15.8385C15.6905 15.8356 16.048 15.8973 16.3204 16.0905C16.5927 16.2838 16.8042 16.5775 16.8042 17.1288C16.8075 17.3784 17.1673 17.5323 17.3486 17.3607C17.4111 17.3027 17.583 17.2213 17.7921 17.1792C18.0012 17.1372 18.2402 17.1288 18.4171 17.1288C19.3108 17.2511 19.8293 17.8658 20.1207 18.893C20.4168 19.9367 20.4213 21.3739 20.1913 22.8647C19.9613 24.3556 19.5033 25.9111 18.9211 27.2196C18.3538 28.4945 17.6536 29.511 16.9857 30.032H8.57859C6.23714 27.3132 4.02849 23.1183 2.59085 19.5885C2.28504 18.8014 2.23275 18.2983 2.32875 17.9555C2.49152 17.5054 2.79704 17.244 3.11504 17.0684C3.47688 16.862 3.83332 16.7445 4.20371 16.8466C4.95858 17.2132 5.23396 17.6724 5.55448 18.2478L6.83472 20.8184C6.89655 20.9509 7.05668 21.0291 7.19919 20.9963C7.34171 20.9636 7.45172 20.8234 7.4496 20.6772V9.0643C7.4496 8.16517 8.16336 7.45138 9.06246 7.45138V7.45138Z" fill="#222222" stroke="#222222" stroke-width="0.2"/>
<path d="M3.99395 1.09247L1.09073 3.99585C1.04569 4.03929 0.999871 4.11499 1 4.2277C1.00387 4.33378 1.01163 4.38317 1.09073 4.45958L3.99395 7.36296C4.12669 7.49061 4.33888 7.47431 4.45766 7.3529C4.57637 7.23146 4.56901 7.01801 4.44766 6.89925L2.09887 4.55032C6.7427 4.55032 11.3865 4.55032 16.0303 4.55032L13.6815 6.89925C13.5601 7.01801 13.5528 7.23146 13.6716 7.3529C13.7903 7.47433 14.0025 7.49063 14.1353 7.36296L17.0385 4.45958C17.1176 4.38317 17.1255 4.33378 17.1292 4.2277C17.1293 4.11499 17.0835 4.03929 17.0385 3.99585L14.1353 1.09247C14.0076 0.967331 13.7903 0.971038 13.6716 1.09247C13.5528 1.2139 13.5601 1.43744 13.6815 1.5562L16.0303 3.9051C11.3865 3.9051 6.7427 3.9051 2.09887 3.9051L4.44766 1.5562C4.56917 1.43744 4.57656 1.2139 4.45766 1.09247C4.30446 0.954212 4.1183 0.989457 3.99395 1.09247Z" fill="#222222" stroke="#222222" stroke-width="0.2"/>
</svg>
