<svg xmlns="http://www.w3.org/2000/svg" width="48" height="48" fill="none" xmlns:v="https://vecta.io/nano"><path d="M47.27 24.226a1.2 1.2 0 0 0-.475-.113c-.409 0-.803.227-1.048.615l-1.851 3.223s-.18-.048-.491-.065l1.31-9.198c.164-.68-.213-1.344-.819-1.522l-.147-.032c-.622-.162-1.261.259-1.441.939l-.999 5.959-.803-.146.606-7.401c.098-.696-.344-1.328-.966-1.425l-.066.017c-.622-.081-1.212.388-1.327 1.069l-.819 7.465-.803.032.246-6.235c.016-.13 0-.243-.016-.356l.868-7.676c.262-1.166-.393-2.332-1.524-2.753-.622-.243-1.327-.194-1.933.097a2.4 2.4 0 0 0-1.245 1.457c0 .032-.016.065-.016.081l-.639 3.449.59-6.834v-.032c.082-1.393-.966-2.591-2.359-2.721a2.71 2.71 0 0 0-1.949.583c-.541.454-.868 1.069-.934 1.781l-.426 3.708.197-5.62v-.048C27.941 1.101 26.794 0 25.353 0h-.115c-1.441 0-2.621 1.15-2.637 2.575l-.442 6.623-.131-4.664V4.47c-.082-.696-.426-1.312-.983-1.749a2.62 2.62 0 0 0-1.933-.551l-.229.032c-1.392.162-2.424 1.409-2.326 2.786v10.898l-1.359-3.061c0-.016-.016-.016-.016-.032-.59-1.182-1.933-1.781-3.21-1.425a2.67 2.67 0 0 0-1.901 3.239l.049.227 1.048 4.016.573 4.227-.884.081-1.572-7.32c-.18-.664-.884-1.053-1.556-.891l-.066.016c-.688.162-1.114.858-.934 1.538l1.343 7.287-.868.243-1.655-5.814a1.29 1.29 0 0 0-1.655-.745l-.147.065c-.655.243-.999.956-.753 1.62L5.27 28.13l-.541.13-2.326-2.963c-.262-.308-.655-.486-1.048-.486-.229 0-.459.065-.672.178-.639.356-.868 1.166-.524 1.814l2.408 4.243c.77 1.053 1.523 1.943 2.343 2.607s1.703 1.101 2.768 1.263l.393 1.555c-.033 0-.066.016-.082.032-2.244.826-2.178 1.652-2.097 1.992 0 .016.016.048.016.065L8.3 47.401a.82.82 0 0 0 .786.599c.066 0 .147 0 .213-.032.442-.113.704-.551.573-.988l-2.047-7.611.803-.081c1.147-.146 2.719-.453 4.537-.907L15 37.895v9.279c0 .454.36.81.819.81s.819-.356.819-.81V33.459c.033.016.066.016.098.032l.966.211 1.065.194 3.047.372c1.671.129 3.604.178 5.701 0l3.227-.405 1.179-.227c.098-.016.18-.048.278-.065v13.603c0 .453.36.81.819.81s.819-.356.819-.81V38.43l3.325.583 4.193.356h.131l.508-.016-1.163 7.692a.82.82 0 0 0 .688.923h.115c.393 0 .753-.291.803-.696l1.359-8.939V38.3v-.032-.048-.048c.033-.729-.672-1.296-2.113-1.684-.033-.016-.066-.016-.115-.016l.229-1.587c.934-.291 1.704-.826 2.392-1.587.688-.745 1.294-1.717 1.9-2.866.36-.68 1.261-3.045 1.818-4.502.246-.65-.016-1.412-.639-1.703h0zM36.606 9.052c-.016.048-.016.081-.016.13 0 .065-.295 3.563-.77 6.98-.295 2.073-.639 4.113-1.048 5.312-.033.113-.066.211-.115.308l-.934 2.089c-.639 1.166-1.31 1.895-2.392 2.737l-.639.486c-.213.146-.328.389-.328.648v4.518a27.98 27.98 0 0 1-3.161.389l-2.605.032c-.868 0-1.654-.016-2.375-.032l-3.096-.356v-4.259a.82.82 0 0 0-.491-.745l-.213-.097c-1.507-.68-2.605-1.846-3.505-3.368l-.393-.696a27.75 27.75 0 0 1-1.081-2.397c-.311-.794-.966-3.304-1.474-5.279l-.262-1.02-.066-.227a1.08 1.08 0 0 1 .77-1.312 1.12 1.12 0 0 1 1.294.567l1.949 4.372.213.47a.85.85 0 0 0 .852.486s.311-.032.803.016c.409.049.966.146 1.556.372.704.291 1.229.631 1.245.631.377.243.884.146 1.13-.227a.8.8 0 0 0-.229-1.117c-.59-.389-1.179-.664-1.72-.858a7.55 7.55 0 0 0-1.294-.356l-.016-12.307v-.081c-.049-.535.344-1.004.868-1.069l.229-.032c.262-.032.524.048.737.211a1 1 0 0 1 .36.631l.246 8.454c0 .211.098.421.262.567s.377.227.59.227l1.278-.032c.426-.016.77-.34.786-.761l.688-10.413v-.048c0-.535.442-.988.999-.988h.098c.541 0 .966.405.999.939l-.377 10.493a.81.81 0 0 0 .688.826l1.245.194c.213.032.442-.016.622-.146s.295-.34.311-.551l.999-8.712v-.032c.016-.259.147-.502.36-.68s.459-.243.737-.227a.97.97 0 0 1 .884 1.02l-.901 10.38c-.033.356.164.68.491.81l1.212.518c.229.097.491.081.704-.032s.377-.324.426-.567l1.359-7.255c.066-.194.213-.356.393-.437.197-.097.426-.113.639-.032.361.162.574.55.476.939h0z" fill="#fef288"/></svg>