<svg width="24" height="22" viewBox="0 0 24 22" fill="none" xmlns="http://www.w3.org/2000/svg">
<path d="M16.2871 1H16.0701L8.75226 3.75969L4.75226 2.30233C4.32926 2.14712 3.87496 2.09664 3.42821 2.15522C2.98145 2.21379 2.55552 2.37967 2.18682 2.63867C1.81812 2.89767 1.51762 3.2421 1.311 3.64251C1.10438 4.04292 0.997782 4.48741 1.00032 4.93798V18.2403C0.997193 18.3087 1.01679 18.3762 1.05605 18.4323C1.09532 18.4884 1.15204 18.5299 1.21738 18.5504L8.65924 21H8.84529L16.1631 18.4264L19.791 19.8527C20.2149 20.0198 20.6731 20.0805 21.1258 20.0296C21.5786 19.9788 22.0119 19.8179 22.3881 19.5609C22.7643 19.304 23.0719 18.9589 23.284 18.5558C23.4961 18.1526 23.6063 17.7036 23.605 17.2481V3.91473C23.6015 3.85164 23.5789 3.7911 23.5401 3.74123C23.5013 3.69135 23.4482 3.65452 23.3879 3.63566L16.2871 1ZM9.06234 4.31783L15.884 1.74419V17.8372L9.06234 20.2558V4.31783ZM1.62048 4.93798C1.61927 4.58825 1.70258 4.24339 1.86334 3.93279C2.02409 3.62218 2.25752 3.35502 2.54375 3.15405C2.82998 2.95308 3.16054 2.82425 3.50728 2.77853C3.85402 2.73281 4.20667 2.77156 4.53521 2.89147L8.44219 4.31783V20.2558L1.62048 18.0233V4.93798ZM23.0158 17.2171C23.0159 17.5718 22.929 17.9211 22.7627 18.2345C22.5965 18.5479 22.356 18.8157 22.0622 19.0146C21.7685 19.2135 21.4305 19.3374 21.0778 19.3753C20.7251 19.4133 20.3684 19.3643 20.0391 19.2326L16.5042 17.8372V1.74419L23.0158 4.16279V17.2171Z" fill="white" stroke="white" stroke-width="0.5"/>
</svg>
