<svg width="22" height="20" viewBox="0 0 22 20" fill="none" xmlns="http://www.w3.org/2000/svg">
<path d="M18.2244 10.2763H18.1052V8.09664C18.1052 6.21449 17.3575 4.40943 16.0266 3.07856C14.6957 1.74768 12.8907 1 11.0085 1C9.12637 1 7.32131 1.74768 5.99043 3.07856C4.65956 4.40943 3.91188 6.21449 3.91188 8.09664V10.2763H3.78416C3.04645 10.2785 2.33959 10.5726 1.81794 11.0942C1.2963 11.6159 1.00225 12.3227 1 13.0605V15.9894C1.00225 16.7271 1.2963 17.4339 1.81794 17.9556C2.33959 18.4772 3.04645 18.7713 3.78416 18.7735H4.63559C4.91108 18.7735 5.17529 18.6641 5.37009 18.4693C5.56489 18.2745 5.67433 18.0103 5.67433 17.7348V11.315C5.67162 11.0629 5.57652 10.8205 5.40705 10.6337C5.23758 10.447 5.0055 10.3289 4.75479 10.3018V8.09664C4.75479 7.27651 4.91633 6.4644 5.23018 5.7067C5.54403 4.94899 6.00405 4.26053 6.58397 3.68061C7.16389 3.10069 7.85236 2.64067 8.61006 2.32681C9.36776 2.01296 10.1799 1.85143 11 1.85143C11.8201 1.85143 12.6322 2.01296 13.3899 2.32681C14.1476 2.64067 14.8361 3.10069 15.416 3.68061C15.996 4.26053 16.456 4.94899 16.7698 5.7067C17.0837 6.4644 17.2452 7.27651 17.2452 8.09664V10.3018C16.9945 10.3289 16.7624 10.447 16.593 10.6337C16.4235 10.8205 16.3284 11.0629 16.3257 11.315V17.7433C16.3257 18.0188 16.4351 18.283 16.6299 18.4778C16.8247 18.6726 17.0889 18.782 17.3644 18.782H18.2158C18.9536 18.7798 19.6604 18.4857 20.1821 17.9641C20.7037 17.4424 20.9978 16.7356 21 15.9979V13.069C21 12.3312 20.7081 11.6235 20.1881 11.1002C19.668 10.577 18.9621 10.2808 18.2244 10.2763V10.2763ZM4.8229 11.315V17.7433C4.8229 17.7679 4.81806 17.7923 4.80864 17.815C4.79923 17.8377 4.78543 17.8584 4.76804 17.8757C4.75065 17.8931 4.73 17.9069 4.70727 17.9164C4.68455 17.9258 4.66019 17.9306 4.63559 17.9306H3.78416C3.27226 17.9284 2.78196 17.724 2.41999 17.362C2.05801 17.0001 1.85367 16.5098 1.85143 15.9979V13.069C1.85367 12.5571 2.05801 12.0668 2.41999 11.7048C2.78196 11.3428 3.27226 11.1385 3.78416 11.1362H4.63559C4.68383 11.1362 4.73023 11.1547 4.76512 11.188C4.80001 11.2214 4.82071 11.2668 4.8229 11.315ZM20.1486 15.9979C20.1463 16.5098 19.942 17.0001 19.58 17.362C19.218 17.724 18.7277 17.9284 18.2158 17.9306H17.3644C17.3147 17.9306 17.2671 17.9109 17.232 17.8757C17.1968 17.8406 17.1771 17.793 17.1771 17.7433V11.315C17.1771 11.2653 17.1968 11.2177 17.232 11.1826C17.2671 11.1474 17.3147 11.1277 17.3644 11.1277H18.2158C18.7277 11.13 19.218 11.3343 19.58 11.6963C19.942 12.0582 20.1463 12.5485 20.1486 13.0605V15.9979Z" fill="#222222" stroke="#222222" stroke-width="0.5"/>
</svg>
