<svg width="20" height="20" viewBox="0 0 20 20" fill="none" xmlns="http://www.w3.org/2000/svg">
<path d="M4.20195 12.6386C4.20195 13.7949 3.25733 14.7396 2.10098 14.7396C0.944626 14.7396 0 13.7949 0 12.6386C0 11.4822 0.944626 10.5376 2.10098 10.5376H4.20195V12.6386Z" fill="#E01E5A"/>
<path d="M5.26062 12.6386C5.26062 11.4822 6.20525 10.5376 7.3616 10.5376C8.51795 10.5376 9.46257 11.4822 9.46257 12.6386V17.8992C9.46257 19.0555 8.51795 20.0001 7.3616 20.0001C6.20525 20.0001 5.26062 19.0555 5.26062 17.8992V12.6386Z" fill="#E01E5A"/>
<path d="M7.3616 4.20195C6.20525 4.20195 5.26062 3.25733 5.26062 2.10098C5.26062 0.944626 6.20525 0 7.3616 0C8.51795 0 9.46257 0.944626 9.46257 2.10098V4.20195H7.3616Z" fill="#36C5F0"/>
<path d="M7.36156 5.26074C8.51792 5.26074 9.46254 6.20537 9.46254 7.36172C9.46254 8.51807 8.51792 9.4627 7.36156 9.4627H2.10098C0.944626 9.4627 0 8.51807 0 7.36172C0 6.20537 0.944626 5.26074 2.10098 5.26074H7.36156Z" fill="#36C5F0"/>
<path d="M15.7981 7.36172C15.7981 6.20537 16.7427 5.26074 17.8991 5.26074C19.0554 5.26074 20 6.20537 20 7.36172C20 8.51807 19.0554 9.4627 17.8991 9.4627H15.7981V7.36172Z" fill="#2EB67D"/>
<path d="M14.7394 7.36156C14.7394 8.51792 13.7948 9.46254 12.6385 9.46254C11.4821 9.46254 10.5375 8.51792 10.5375 7.36156V2.10098C10.5375 0.944626 11.4821 0 12.6385 0C13.7948 0 14.7394 0.944626 14.7394 2.10098V7.36156Z" fill="#2EB67D"/>
<path d="M12.6385 15.7979C13.7948 15.7979 14.7394 16.7425 14.7394 17.8988C14.7394 19.0552 13.7948 19.9998 12.6385 19.9998C11.4821 19.9998 10.5375 19.0552 10.5375 17.8988V15.7979H12.6385Z" fill="#ECB22E"/>
<path d="M12.6385 14.7396C11.4821 14.7396 10.5375 13.7949 10.5375 12.6386C10.5375 11.4822 11.4821 10.5376 12.6385 10.5376H17.899C19.0554 10.5376 20 11.4822 20 12.6386C20 13.7949 19.0554 14.7396 17.899 14.7396H12.6385Z" fill="#ECB22E"/>
</svg>
