<svg width="20" height="20" viewBox="0 0 20 20" fill="none" xmlns="http://www.w3.org/2000/svg">
<path d="M5.33291 10.522L9.38091 14.895C9.67291 15.21 10.2069 15.215 10.5029 14.904L14.6589 10.531C14.9519 10.222 14.9389 9.735 14.6339 9.442C14.3349 9.158 13.8269 9.172 13.5449 9.469L10.7699 12.388V0.769C10.7699 0.345 10.4239 0 9.99991 0C9.57591 0 9.23091 0.345 9.23091 0.769V12.47L6.46191 9.477C6.31291 9.315 6.12491 9.23 5.91491 9.23C5.72291 9.23 5.52891 9.304 5.36891 9.44C5.06191 9.725 5.04391 10.212 5.33291 10.522Z" fill="#222222"/>
<path d="M18.687 9.45596C18.542 9.60196 18.462 9.79396 18.462 9.99996V17.18C18.462 17.911 17.911 18.462 17.18 18.462H2.82C2.09 18.462 1.538 17.911 1.538 17.18V9.99996C1.538 9.79796 1.456 9.59896 1.312 9.45596C1.17 9.31296 0.972 9.23096 0.769 9.23096C0.567 9.23096 0.369 9.31296 0.226 9.45596C0.082 9.59896 0 9.79796 0 9.99996V17.18C0 18.735 1.265 20 2.82 20H17.18C18.736 20 20 18.735 20 17.18V9.99996C20 9.79396 19.92 9.60196 19.774 9.45596C19.484 9.16596 18.978 9.16596 18.687 9.45596Z" fill="#222222"/>
</svg>
