<svg width="20" height="18" viewBox="0 0 20 18" fill="none" xmlns="http://www.w3.org/2000/svg">
<path d="M0 5.19787C0 5.1354 0 5.07709 0 5.01461C0.0541441 4.85635 0.149938 4.73973 0.30404 4.66476C3.4444 3.13623 6.58059 1.6077 9.72095 0.0708393C9.90837 -0.0207892 10.075 -0.0249541 10.2624 0.0666744C13.3694 1.58687 16.4806 3.09874 19.5918 4.61478C19.7751 4.70224 19.9334 4.81053 19.9958 5.01461C19.9958 5.07709 19.9958 5.1354 19.9958 5.19787C19.9375 5.38946 19.7959 5.49774 19.621 5.58521C18.9046 5.9309 18.1924 6.28075 17.4802 6.62644C17.2553 6.73889 17.0262 6.84718 16.7888 6.9638C16.8305 6.98463 16.8596 7.00128 16.893 7.01794C17.7968 7.45943 18.6964 7.90091 19.6002 8.33823C19.7793 8.42569 19.9334 8.52981 20 8.72973C20 8.79221 20 8.85051 20 8.91299C19.9459 9.10874 19.8126 9.22119 19.6335 9.30449C18.9213 9.64602 18.2132 9.99587 17.501 10.3416C17.2678 10.454 17.0346 10.5706 16.7888 10.6914C16.8347 10.7164 16.868 10.7331 16.8971 10.7497C17.8051 11.1912 18.713 11.6369 19.621 12.0783C19.7959 12.1616 19.9375 12.2699 19.9958 12.4657C19.9958 12.5281 19.9958 12.5865 19.9958 12.6489C19.9375 12.8405 19.7959 12.9488 19.621 13.0363C18.7047 13.4778 17.7884 13.9276 16.8763 14.3732C14.6814 15.4436 12.4823 16.514 10.2874 17.5927C10.0958 17.6885 9.92503 17.6927 9.72511 17.5927C6.60975 16.0725 3.49438 14.5523 0.379009 13.0363C0.204082 12.9488 0.062474 12.8405 0.00416493 12.6489C0.00416493 12.5865 0.00416493 12.5281 0.00416493 12.4657C0.062474 12.2741 0.204082 12.1616 0.379009 12.0783C1.11204 11.7285 1.83673 11.3703 2.5656 11.0163C2.77801 10.9122 2.99042 10.808 3.21533 10.6997C3.16951 10.6789 3.14036 10.6623 3.1112 10.6456C2.20741 10.2041 1.30779 9.76263 0.403998 9.32532C0.224906 9.23785 0.0708038 9.13373 0.00416493 8.93798C0.00416493 8.87134 0.00416493 8.80054 0.00416493 8.7339C0.0708038 8.53398 0.224906 8.42986 0.403998 8.34656C1.30779 7.90924 2.20741 7.46776 3.1112 7.02627C3.14036 7.00961 3.17368 6.99296 3.21116 6.97213C3.16535 6.94714 3.13619 6.93465 3.10287 6.91799C2.19492 6.4765 1.28696 6.03086 0.374844 5.58937C0.199917 5.50191 0.062474 5.38946 0 5.19787ZM18.4756 5.11041C18.4382 5.08958 18.4173 5.07709 18.3923 5.06459C15.6268 3.71515 12.8655 2.36988 10.1 1.01628C10.0208 0.974629 9.95835 0.982959 9.88338 1.02044C7.19284 2.3324 4.50229 3.64852 1.81175 4.96047C1.71595 5.00628 1.62432 5.05626 1.51603 5.10624C1.56185 5.13123 1.591 5.14373 1.62016 5.16039C4.38151 6.50566 7.14286 7.8551 9.90004 9.20037C9.96252 9.23369 10.0125 9.23369 10.0791 9.20037C12.703 7.91757 15.3311 6.63477 17.9592 5.35614C18.1299 5.277 18.2965 5.19787 18.4756 5.11041ZM1.51603 8.82969C1.57851 8.86301 1.62016 8.88383 1.66181 8.90466C4.39817 10.2416 7.13453 11.5744 9.87089 12.9113C9.96252 12.9571 10.0375 12.9613 10.1249 12.9072C10.2041 12.8613 10.2874 12.8239 10.3707 12.7864C13.0446 11.4828 15.7143 10.1791 18.3882 8.8755C18.4132 8.86301 18.4381 8.84635 18.4715 8.82969C18.4298 8.80886 18.4007 8.7922 18.3757 8.77971C17.5385 8.37155 16.6972 7.96338 15.8601 7.55106C15.7643 7.50524 15.6893 7.50108 15.5893 7.55106C13.8234 8.41736 12.0491 9.2795 10.2832 10.1458C10.0916 10.2416 9.92087 10.2458 9.72095 10.1458C7.94252 9.27117 6.15577 8.40487 4.37734 7.5344C4.30237 7.49691 4.24823 7.49691 4.17326 7.5344C3.64015 7.80095 3.09871 8.05918 2.56143 8.32157C2.21991 8.484 1.87838 8.6506 1.51603 8.82969ZM18.4715 12.5573C18.4465 12.5406 18.4382 12.5323 18.4257 12.5281C17.5469 12.0992 16.6681 11.6702 15.7893 11.2453C15.7518 11.2287 15.6893 11.2287 15.6476 11.2495C15.4311 11.3495 15.2187 11.4578 15.0062 11.5619C13.4361 12.3282 11.8701 13.0904 10.304 13.8609C10.0916 13.9651 9.91254 13.9692 9.69596 13.8609C7.9217 12.9863 6.13911 12.1241 4.36068 11.2578C4.30237 11.2287 4.25239 11.2204 4.18992 11.2537C3.33195 11.6743 2.4698 12.095 1.60766 12.5157C1.57851 12.5281 1.55352 12.5448 1.51603 12.5656C1.56601 12.5906 1.59933 12.6114 1.63682 12.6281C4.38151 13.965 7.12203 15.302 9.86256 16.6431C9.95419 16.6889 10.025 16.6889 10.1166 16.6431C12.5239 15.4644 14.9313 14.2941 17.3386 13.1196C17.7176 12.928 18.0883 12.7447 18.4715 12.5573Z" fill="white"/>
</svg>
