<svg xmlns="http://www.w3.org/2000/svg" width="48" height="48" fill="none" xmlns:v="https://vecta.io/nano"><path d="M47.86 45.23c-1.876-4.73-5.155-8.792-9.409-11.655a25.86 25.86 0 0 0-14.435-4.395c-5.151 0-10.181 1.532-14.435 4.395A25.31 25.31 0 0 0 .172 45.23c-.221.491-.229 1.05-.022 1.548s.611.889 1.118 1.086 1.074.18 1.569-.046a1.98 1.98 0 0 0 1.052-1.149 21.36 21.36 0 0 1 7.939-9.845 21.82 21.82 0 0 1 12.187-3.713 21.82 21.82 0 0 1 12.188 3.713 21.36 21.36 0 0 1 7.94 9.845 1.97 1.97 0 0 0 .732.914 2.02 2.02 0 0 0 1.127.348c.247.002.492-.045.72-.138.497-.189.897-.566 1.11-1.047s.224-1.026.029-1.515h0zM24.016 25.227c3.392 0 6.646-1.329 9.045-3.695s3.747-5.574 3.747-8.919-1.348-6.553-3.747-8.919S27.409 0 24.016 0s-6.646 1.329-9.045 3.694-3.747 5.574-3.747 8.919c.005 3.344 1.354 6.549 3.752 8.913s5.648 3.695 9.039 3.7zm0-21.285c2.332 0 4.569.914 6.218 2.54a8.61 8.61 0 0 1 2.576 6.132 8.61 8.61 0 0 1-2.576 6.132c-1.649 1.626-3.886 2.54-6.218 2.54s-4.569-.914-6.218-2.54a8.61 8.61 0 0 1-2.576-6.132 8.63 8.63 0 0 1 2.582-6.126c1.648-1.625 3.882-2.541 6.213-2.546h0z" fill="#222"/></svg>