<svg width="45" height="45" viewBox="0 0 45 45" fill="none" xmlns="http://www.w3.org/2000/svg">
<path d="M22.5 0C18.0499 0 13.6998 1.3196 9.99968 3.79193C6.29957 6.26426 3.41569 9.77828 1.71272 13.8896C0.00974886 18.001 -0.435826 22.525 0.432341 26.8895C1.30051 31.2541 3.44343 35.2632 6.59011 38.4099C9.73679 41.5566 13.7459 43.6995 18.1105 44.5677C22.475 45.4358 26.999 44.9903 31.1104 43.2873C35.2217 41.5843 38.7357 38.7004 41.2081 35.0003C43.6804 31.3002 45 26.9501 45 22.5C45 16.5326 42.6295 10.8097 38.4099 6.5901C34.1903 2.37053 28.4674 0 22.5 0V0ZM11.547 16.2765C11.8139 15.6332 12.2713 15.087 12.8577 14.7113C13.4442 14.3356 14.1316 14.1485 14.8275 14.175C17.3745 14.175 19.9215 14.175 22.4775 14.175C25.0335 14.175 27.5895 14.175 30.1275 14.175C30.8159 14.1457 31.4973 14.3229 32.0842 14.6837C32.6711 15.0445 33.1368 15.5726 33.4215 16.2C33.4787 16.2794 33.5161 16.3713 33.5304 16.4681C33.5447 16.5649 33.5357 16.6637 33.5039 16.7563C33.4722 16.8489 33.4187 16.9325 33.348 17.0001C33.2773 17.0677 33.1914 17.1174 33.0975 17.145L22.95 22.4325C22.8219 22.5059 22.6769 22.5445 22.5293 22.5445C22.3816 22.5445 22.2366 22.5059 22.1085 22.4325L11.8305 17.1C11.7489 17.0757 11.6743 17.0322 11.6128 16.9733C11.5513 16.9144 11.5048 16.8416 11.4771 16.7611C11.4494 16.6806 11.4413 16.5946 11.4534 16.5103C11.4656 16.4261 11.4977 16.3459 11.547 16.2765ZM33.687 27.927C33.5592 28.7432 33.141 29.4857 32.5093 30.0182C31.8777 30.5506 31.075 30.8371 30.249 30.825C28.161 30.825 26.073 30.825 23.9895 30.825H14.8185C14.04 30.8422 13.2783 30.5973 12.6557 30.1297C12.033 29.6621 11.5855 28.9989 11.385 28.2465C11.3044 27.9532 11.262 27.6507 11.259 27.3465C11.259 24.8985 11.259 22.4505 11.259 19.998C11.259 19.3635 11.655 19.1295 12.2265 19.422C15.4215 21.084 18.6135 22.749 21.8025 24.417C22.0171 24.5441 22.2619 24.6112 22.5113 24.6112C22.7606 24.6112 23.0054 24.5441 23.22 24.417C26.394 22.752 29.5725 21.102 32.7555 19.467C32.8455 19.4145 32.9424 19.3751 33.0435 19.35C33.1294 19.3203 33.2215 19.3129 33.311 19.3286C33.4006 19.3443 33.4846 19.3826 33.5553 19.4398C33.626 19.4969 33.6809 19.5711 33.715 19.6554C33.7491 19.7397 33.7611 19.8313 33.75 19.9215C33.75 22.0425 33.75 24.162 33.75 26.28C33.7743 26.8298 33.7532 27.3807 33.687 27.927V27.927Z" fill="#222222"/>
</svg>
