<svg width="60" height="60" viewBox="0 0 60 60" fill="none" xmlns="http://www.w3.org/2000/svg">
<path d="M60 30C60 13.4526 46.5474 2.89707e-07 30 1.54282e-06C13.4526 2.79594e-06 -1.17441e-06 13.4526 -7.56916e-07 30C-3.39417e-07 46.5474 13.4526 60 30 60C46.5474 60 60 46.5474 60 30ZM4.29474 30C4.29474 15.8526 15.7895 4.29474 30 4.29474C44.2105 4.29474 55.7053 15.8526 55.7053 30C55.7053 44.1474 44.1474 55.7053 30 55.7053C15.8526 55.7053 4.29474 44.1474 4.29474 30Z" fill="white"/>
<path d="M24.0316 16L21 19.0316L32.1789 30.2737L21 41.5158L24.0316 44.5474L38.3053 30.2737L24.0316 16Z" fill="white"/>
</svg>
