<svg width="20" height="20" viewBox="0 0 20 20" fill="none" xmlns="http://www.w3.org/2000/svg">
<path d="M15.3872 5.33291L19.7602 9.38091C20.0752 9.67291 20.0802 10.2069 19.7692 10.5029L15.3962 14.6589C15.0872 14.9519 14.6002 14.9389 14.3072 14.6339C14.0232 14.3349 14.0372 13.8269 14.3342 13.5449L17.2532 10.7699L5.63423 10.7699C5.21023 10.7699 4.86523 10.4239 4.86523 9.99991C4.86523 9.57591 5.21023 9.23091 5.63423 9.23091L17.3352 9.23091L14.3422 6.46191C14.1802 6.31291 14.0952 6.12491 14.0952 5.91491C14.0952 5.72291 14.1692 5.52891 14.3052 5.36891C14.5902 5.06191 15.0772 5.04391 15.3872 5.33291Z" fill="white"/>
<path d="M10.5436 18.687C10.3976 18.542 10.2056 18.462 9.99955 18.462L2.81955 18.462C2.08855 18.462 1.53755 17.911 1.53755 17.18L1.53755 2.82C1.53755 2.09 2.08855 1.538 2.81955 1.538L9.99955 1.538C10.2016 1.538 10.4006 1.456 10.5436 1.312C10.6866 1.17 10.7686 0.972 10.7686 0.769C10.7686 0.567 10.6866 0.369 10.5436 0.226C10.4006 0.082 10.2016 -2.47844e-08 9.99955 -3.36141e-08L2.81955 -3.47462e-07C1.26455 -4.15433e-07 -0.000445421 1.265 -0.000445489 2.82L-0.000446117 17.18C-0.000446185 18.736 1.26455 20 2.81955 20L9.99955 20C10.2056 20 10.3976 19.92 10.5436 19.774C10.8336 19.484 10.8336 18.978 10.5436 18.687Z" fill="white"/>
</svg>
