<svg width="25" height="20" viewBox="0 0 25 20" fill="none" xmlns="http://www.w3.org/2000/svg">
<path d="M23.9027 0.192085C23.6237 0.067369 23.0689 0 22.6884 0H1.8095C1.79614 0 0.442632 0.0347981 0.192086 0.594908C0.0673691 0.874128 0 1.42895 0 1.8095V13.6409C0 13.6545 0.0347981 15.0074 0.594908 15.2583C0.874128 15.383 1.42895 15.4504 1.8095 15.4504H5.98527C6.13616 15.4504 6.26366 15.5779 6.26366 15.7287V19.2086C6.26366 19.4098 6.30848 19.5805 6.397 19.7155C6.5156 19.8964 6.70573 20 6.91842 20C7.04954 20 7.25359 19.9585 7.4802 19.7603L12.0003 15.8053C12.2125 15.6193 12.6626 15.4504 12.9449 15.4504H22.6884C22.702 15.4504 24.055 15.4153 24.3058 14.8552C24.4305 14.5762 24.4979 14.0214 24.4979 13.6409V1.8095C24.4979 1.79614 24.4628 0.442632 23.9027 0.192085ZM23.6627 13.6409C23.6627 13.9546 23.6118 14.2853 23.5669 14.4454C23.401 14.5214 22.9637 14.6152 22.6884 14.6152H12.9449C12.4588 14.6152 11.816 14.8566 11.4502 15.177L7.09881 18.9842V15.7287C7.09881 15.1146 6.59939 14.6152 5.98527 14.6152H1.8095C1.49576 14.6152 1.16504 14.5643 1.00497 14.5194C0.92897 14.3535 0.835154 13.9162 0.835154 13.6409V1.8095C0.835154 1.49576 0.88582 1.16504 0.930919 1.00497C1.09711 0.92897 1.5339 0.835154 1.8095 0.835154H22.6884C23.0021 0.835154 23.3328 0.88582 23.4929 0.930919C23.5689 1.09711 23.6627 1.5339 23.6627 1.8095V13.6409Z" fill="black"/>
<path d="M20.6002 3.47974H3.89707C3.66629 3.47974 3.47949 3.66653 3.47949 3.89731C3.47949 4.12809 3.66629 4.31489 3.89707 4.31489H20.6002C20.8307 4.31489 21.0177 4.12809 21.0177 3.89731C21.0177 3.66653 20.8307 3.47974 20.6002 3.47974Z" fill="black"/>
<path d="M20.6002 6.95972H3.89707C3.66629 6.95972 3.47949 7.14651 3.47949 7.37729C3.47949 7.60808 3.66629 7.79487 3.89707 7.79487H20.6002C20.8307 7.79487 21.0177 7.60808 21.0177 7.37729C21.0177 7.14651 20.8307 6.95972 20.6002 6.95972Z" fill="black"/>
<path d="M10.1607 10.4395H3.89707C3.66629 10.4395 3.47949 10.6265 3.47949 10.857C3.47949 11.0875 3.66629 11.2746 3.89707 11.2746H10.1607C10.3915 11.2746 10.5783 11.0875 10.5783 10.857C10.5783 10.6265 10.3915 10.4395 10.1607 10.4395Z" fill="black"/>
</svg>
