<svg xmlns="http://www.w3.org/2000/svg" width="25" height="21" fill="#fef288" xmlns:v="https://vecta.io/nano"><path d="M.384 16.483V9.44c0-1.937 1.811-3.557 3.586-4.03l7.336-4.133a2.27 2.27 0 0 1 1.569-.624c.613 0 1.189.24 1.622.676a2.3 2.3 0 0 1 .672 1.632 2.3 2.3 0 0 1-.672 1.632c-.021.021-.045.041-.069.058l-.883.618h5.958c1.265 0 2.294 1.035 2.294 2.308 0 .474-.143.915-.387 1.282h.642c1.265 0 2.294 1.035 2.294 2.308s-1.029 2.308-2.294 2.308h-.133c.245.367.387.808.387 1.282 0 1.273-1.029 2.308-2.294 2.308h-.642c.244.367.387.808.387 1.282 0 1.272-1.029 2.308-2.294 2.308H5.041c-2.198 0-4.656-1.784-4.656-4.171zM14.15 2.961c0-.342-.133-.664-.373-.907a1.26 1.26 0 0 0-.901-.375 1.26 1.26 0 0 0-.901.375.51.51 0 0 1-.111.085L4.411 6.338a.51.51 0 0 1-.126.05c-1.385.346-2.88 1.611-2.88 3.052v7.043c0 1.771 1.955 3.145 3.637 3.145h12.423a1.28 1.28 0 1 0 0-2.564.51.51 0 1 1 0-1.026h2.549a1.28 1.28 0 1 0 0-2.564.51.51 0 1 1 0-1.026h2.039a1.28 1.28 0 1 0 0-2.564h-2.549a.51.51 0 0 1 0-1.026 1.28 1.28 0 0 0 0-2.564H11.92a.51.51 0 0 1-.487-.359c-.067-.214.012-.446.195-.574l2.177-1.523c.222-.238.344-.548.344-.876z"/><path d="M13.13 16.551a.51.51 0 0 1 .51-.513h3.824a.513.513 0 1 1 0 1.026H13.64a.51.51 0 0 1-.51-.513zm0-3.59a.51.51 0 0 1 .51-.513h6.373a.513.513 0 1 1 0 1.026H13.64a.51.51 0 0 1-.51-.513zm0-3.59a.51.51 0 0 1 .51-.513h5.863a.513.513 0 1 1 0 1.026H13.64a.51.51 0 0 1-.51-.513zm-8.667 4.616c0-.223.146-.428.369-.493 2.415-.698 3.945-2.175 4.55-4.391.462-1.694.191-3.212.188-3.227-.027-.15.012-.305.109-.422a.51.51 0 0 1 .392-.185h5.863a.513.513 0 0 1 0 1.026h-5.289a9.24 9.24 0 0 1-.27 3.04c-.479 1.792-1.781 4.138-5.262 5.145a.51.51 0 0 1-.631-.351c-.014-.047-.02-.095-.02-.142z"/><path d="M13.13 18.09V7.833a.51.51 0 0 1 .51-.513.51.51 0 0 1 .51.513V18.09a.51.51 0 0 1-.51.513.51.51 0 0 1-.51-.513z"/></svg>