<svg width="20" height="20" viewBox="0 0 20 20" fill="none" xmlns="http://www.w3.org/2000/svg">
<path d="M19.8462 8.28205C19.7692 7.82051 19.3077 7.48718 18.8462 7.5641C18.3846 7.64103 18.0513 8.10256 18.1282 8.5641C18.2051 9.02564 18.2564 9.51282 18.2564 10C18.2564 14.5641 14.5641 18.2564 10 18.2564C5.4359 18.2564 1.74359 14.5641 1.74359 10C1.74359 5.4359 5.4359 1.74359 10 1.74359C11.1795 1.74359 12.359 2 13.4359 2.48718L13.0256 3.07692C12.7692 3.41026 12.9744 3.89744 13.4103 3.94872L16.8718 4.4359C17.3077 4.48718 17.641 4.05128 17.4359 3.64103L15.8974 0.487179C15.7179 0.102564 15.2051 0.0769232 14.9487 0.410257L14.4615 1.07692C13.1026 0.358974 11.5641 0 10 0C7.33333 0 4.82051 1.05128 2.92308 2.92308C1.05128 4.82051 0 7.33333 0 10C0 12.6667 1.05128 15.1795 2.92308 17.0769C4.82051 18.9487 7.33333 20 10 20C12.6667 20 15.1795 18.9487 17.0769 17.0769C18.9487 15.1795 20 12.6667 20 10C20 9.41026 19.9487 8.84615 19.8462 8.28205Z" fill="white"/>
<path d="M10.0256 4.79486C9.53846 4.79486 9.15385 5.17948 9.15385 5.66666L9.1282 10.3846C9.1282 10.3846 9.1282 10.3846 9.1282 10.4102V10.4359V10.4615V10.4872V10.5128C9.1282 10.5128 9.1282 10.5128 9.1282 10.5385V10.5641C9.1282 10.5641 9.1282 10.5641 9.1282 10.5897V10.6154C9.1282 10.6154 9.1282 10.6154 9.1282 10.641V10.6667C9.1282 10.6667 9.1282 10.6667 9.1282 10.6923V10.7179C9.1282 10.7179 9.1282 10.7179 9.1282 10.7436V10.7692C9.1282 10.7692 9.1282 10.7692 9.1282 10.7949V10.8205V10.8461C9.1282 10.8461 9.1282 10.8461 9.1282 10.8718V10.8974C9.1282 10.8974 9.1282 10.8974 9.1282 10.9231C9.1282 10.9231 9.1282 10.9487 9.15385 10.9487C9.15385 10.9487 9.15385 10.9743 9.17949 10.9743C9.17949 10.9743 9.17949 11 9.20513 11C9.20513 11 9.20513 11.0256 9.23077 11.0256C9.23077 11.0256 9.23077 11.0513 9.25641 11.0513C9.25641 11.0513 9.25641 11.0513 9.28205 11.0769C9.28205 11.0769 9.28205 11.0769 9.30769 11.1026C9.30769 11.1026 9.30769 11.1026 9.33333 11.1282L13.5128 15C13.6923 15.1538 13.8974 15.2308 14.1026 15.2308C14.3333 15.2308 14.5641 15.1282 14.7436 14.9487C15.0769 14.5897 15.0513 14.0513 14.6923 13.7179L10.8718 9.99999L10.8974 5.66666C10.8974 5.20512 10.5128 4.79486 10.0256 4.79486Z" fill="white"/>
</svg>
