<svg xmlns="http://www.w3.org/2000/svg" width="48" height="48" fill="#222" xmlns:v="https://vecta.io/nano"><path d="M46.453 25.33c-.913-1.182-2.525-1.451-4.244-.752l-1.826.752 3.116-8.541a2.98 2.98 0 0 0-.108-2.256c-.322-.699-.913-1.235-1.665-1.504-.537-.215-1.128-.215-1.665-.054l.376-1.074a2.98 2.98 0 0 0-.108-2.256c-.322-.699-.913-1.235-1.665-1.504-1.504-.537-3.169.269-3.707 1.719-.322-.43-.806-.806-1.343-1.021-1.504-.537-3.169.269-3.76 1.773l-.537 1.504c-.322-.43-.806-.806-1.343-.967-1.504-.537-3.169.269-3.76 1.826l-1.719 4.835-.806-2.041c-.269-.752-.86-1.343-1.558-1.665s-1.451-.322-2.149-.054c-.537.215-.967.591-1.289 1.021l-.591-1.45c-.269-.752-.86-1.343-1.558-1.665s-1.451-.322-2.149-.054c-.537.215-.967.591-1.289 1.021a3.14 3.14 0 0 0-1.558-1.558c-.698-.322-1.451-.322-2.149-.054-1.451.591-2.203 2.31-1.612 3.814l.43 1.074c-.537-.108-1.074-.108-1.612.107-1.451.591-2.203 2.31-1.612 3.814l3.814 9.67-2.31-1.397c-.645-.43-1.397-.645-2.095-.537a2.74 2.74 0 0 0-1.88 1.182c-.913 1.289-.591 3.116.645 4.083.482.482 6.714 5.424 8.97 7.036a10.01 10.01 0 0 0 5.748 1.826c1.343 0 2.74-.269 4.083-.806 2.095-.86 3.868-2.31 5.05-4.244.645.43 1.343.752 2.095 1.021a11.6 11.6 0 0 0 3.814.645 10.43 10.43 0 0 0 6.232-2.041c2.256-1.665 8.434-6.823 8.81-7.145a2.96 2.96 0 0 0 .483-4.083h0zM19.432 39.942c-2.955 1.182-6.124.86-8.595-.86-2.202-1.612-8.649-6.769-8.702-6.823-.698-.537-.86-1.558-.376-2.31.215-.322.591-.591 1.021-.645a1.62 1.62 0 0 1 1.128.269s.054 0 .054.054l4.029 2.417c.215.161.537.108.752-.054s.269-.483.161-.752L4.337 19.743c-.322-.86.054-1.773.86-2.095a1.5 1.5 0 0 1 1.074.054c.376.161.698.483.913.86l2.417 6.232c.108.269.376.43.591.43.054 0 .161 0 .215-.054.322-.108.483-.537.376-.86l-2.364-6.017v-.054c0-.054-.054-.107-.054-.161l-1.289-3.331c-.322-.86.054-1.773.86-2.095.376-.161.806-.161 1.182 0a1.6 1.6 0 0 1 .86.913l.86 2.256 2.794 7.252c.107.269.376.43.591.43.054 0 .161 0 .215-.054.322-.108.483-.537.376-.86l-2.686-7.037-.054-.161c-.322-.86.054-1.773.86-2.095.376-.161.806-.161 1.182 0a1.6 1.6 0 0 1 .86.913l1.45 3.653c0 .054 0 .054.054.108l1.934 5.103c.108.322.537.483.86.376s.483-.537.376-.86l-1.988-5.103c-.322-.86.054-1.773.86-2.095.376-.161.806-.161 1.182 0a1.6 1.6 0 0 1 .86.913l4.298 11.174c1.772 5.049-.592 10.528-5.427 12.462h0zm25.678-11.55c-.054.054-6.554 5.426-8.756 7.091-2.417 1.826-5.748 2.256-8.756 1.182a8.68 8.68 0 0 1-1.88-.913c.053-.108.108-.215.161-.376a11.43 11.43 0 0 0 .269-8.327L23.3 19.743l2.203-6.285c.322-.86 1.236-1.289 2.042-1.021.376.161.698.43.913.806.161.376.215.86.054 1.235l-1.934 5.48c-.107.322.054.699.376.86.053 0 .161.054.215.054a.7.7 0 0 0 .645-.43l1.934-5.48c0-.054 0-.054.054-.107l1.343-3.707c.322-.86 1.235-1.289 2.042-1.021.376.161.698.43.913.806.161.376.215.86.054 1.289l-.054.161-2.686 7.789c-.108.322.054.698.43.86.054 0 .161.054.215.054a.7.7 0 0 0 .645-.43l2.794-7.95.806-2.256c.322-.86 1.235-1.289 2.041-1.021.376.161.698.43.913.806.161.376.215.86.054 1.236l-1.182 3.223c-.054.107-.054.161-.108.269 0 .053 0 .107-.054.107l-2.417 6.661c-.108.322.054.698.376.86.054 0 .161.054.215.054a.7.7 0 0 0 .645-.43l2.525-6.984c.376-.752 1.289-1.182 1.987-.913.376.161.699.43.913.806.161.376.215.86.054 1.236l-3.546 9.616c-.591.215-1.128.43-1.397.537-3.384-1.289-5.211.215-6.715 1.397-.269.215-.322.645-.108.913s.645.322.913.108c1.45-1.182 2.794-2.31 5.641-1.128a.74.74 0 0 0 .483 0 290.29 290.29 0 0 0 5.157-2.041c.699-.269 1.988-.645 2.686.322.592.754.431 1.774-.267 2.311h0zM8.473 6.797l3.331 2.149c.107.054.215.108.376.108a.59.59 0 0 0 .537-.322c.215-.322.108-.698-.215-.913l-3.33-2.15c-.322-.215-.698-.108-.913.215s-.108.698.214.913h0zm7.843-.537c.108.269.322.43.645.43.054 0 .161 0 .215-.054.322-.108.537-.483.43-.86L15.779.458c-.107-.322-.483-.537-.86-.43-.322.108-.537.483-.43.86l1.827 5.372zm5.802-.484c.054.054.161.054.215.054.269 0 .537-.161.591-.43l1.343-3.707c.107-.322-.054-.698-.376-.86-.322-.108-.698.054-.86.376l-1.343 3.707c-.107.376.108.752.43.86h0zm4.727 37.067c-.322-.108-.698.108-.806.43l-1.128 3.76c-.108.322.107.698.43.806.054 0 .107.054.215.054.269 0 .537-.161.644-.483l1.128-3.76c.054-.322-.107-.698-.483-.806h0zm5.587-.967c-.161-.322-.537-.483-.86-.376-.322.161-.483.537-.376.86l2.149 5.211c.108.269.376.43.591.43.108 0 .161 0 .269-.054.322-.161.483-.537.376-.86l-2.149-5.211zm7.843-1.289l-3.438-1.934c-.322-.161-.698-.054-.913.269-.161.322-.054.699.269.913l3.438 1.934c.108.054.215.108.322.108.215 0 .43-.108.591-.322.161-.376.054-.752-.269-.967h0z"/></svg>