<svg width="20" height="20" viewBox="0 0 20 20" fill="none" xmlns="http://www.w3.org/2000/svg">
<path d="M18.5637 13.3664C18.4309 12.9684 18.1762 12.6223 17.8358 12.377C17.4955 12.1318 17.0865 11.9997 16.667 11.9996H14.0002V13.9997H16.667L18.0004 17.9999H11.0001V3.4126L14.0002 6.41274L15.4136 4.99934L10.7067 0.292466C10.5192 0.10519 10.265 0 10 0C9.73502 0 9.48084 0.10519 9.29334 0.292466L4.58646 4.99934L5.99986 6.41274L8.99999 3.4126V17.9999H1.99968L3.33307 13.9997H5.99986V11.9996H3.33307C2.91352 11.9997 2.50461 12.1318 2.16422 12.377C1.82382 12.6223 1.56918 12.9684 1.43632 13.3664L0.102931 17.3666C0.00255951 17.6672 -0.0249203 17.9874 0.0227556 18.3008C0.0704314 18.6141 0.191897 18.9116 0.377143 19.1688C0.562388 19.426 0.806107 19.6355 1.08821 19.78C1.37031 19.9245 1.68272 19.9999 1.99968 20H18.0004C18.3173 19.9999 18.6298 19.9245 18.9119 19.78C19.194 19.6355 19.4377 19.426 19.6229 19.1688C19.8082 18.9116 19.9296 18.6141 19.9773 18.3008C20.025 17.9874 19.9975 17.6672 19.8971 17.3666L18.5637 13.3664Z" fill="#222222"/>
</svg>
