<svg width="25" height="21" viewBox="0 0 25 21" fill="none" xmlns="http://www.w3.org/2000/svg">
<path d="M0.384243 16.4826L0.384243 9.43986C0.384243 7.50262 2.19543 5.88265 3.97019 5.41003L11.3066 1.27716C11.7333 0.874433 12.2873 0.653564 12.8752 0.653564C13.488 0.653564 14.0641 0.893582 14.4975 1.32945C14.9307 1.76533 15.1694 2.34481 15.1694 2.96126C15.1694 3.57772 14.9308 4.1572 14.4975 4.59308C14.4761 4.61455 14.4528 4.63408 14.4281 4.65146L13.5455 5.26897L19.503 5.26897C20.768 5.26897 21.7972 6.30419 21.7972 7.57667C21.7972 8.05067 21.6543 8.4918 21.4098 8.85872L22.0522 8.85872C23.3172 8.85872 24.3464 9.89394 24.3464 11.1664C24.3464 12.4389 23.3172 13.4741 22.0522 13.4741L21.9196 13.4741C22.1642 13.841 22.3071 14.2822 22.3071 14.7561C22.3071 16.0286 21.2779 17.0638 20.0128 17.0638L19.3705 17.0638C19.615 17.4307 19.7579 17.8719 19.7579 18.3459C19.7579 19.6183 18.7287 20.6536 17.4637 20.6536L5.04071 20.6536C2.84268 20.6536 0.384243 18.8698 0.384243 16.4826ZM14.1498 2.96126C14.1498 2.61881 14.0172 2.29683 13.7765 2.05471C13.5358 1.81253 13.2157 1.67921 12.8753 1.67921C12.5348 1.67921 12.2148 1.81253 11.974 2.05471C11.9409 2.08797 11.9035 2.11653 11.8627 2.13949L4.41057 6.33751C4.37084 6.35981 4.32848 6.37674 4.28435 6.38776C2.89913 6.73386 1.40403 7.9992 1.40403 9.43986L1.40403 16.4826C1.40403 18.254 3.35898 19.6279 5.04081 19.6279L17.4637 19.6279C18.1665 19.6279 18.7382 19.0527 18.7382 18.3459C18.7382 17.639 18.1665 17.0638 17.4637 17.0638C17.1821 17.0638 16.9538 16.8342 16.9538 16.551C16.9538 16.2677 17.1821 16.0381 17.4637 16.0381L20.0128 16.0381C20.7156 16.0381 21.2874 15.463 21.2874 14.7561C21.2874 14.0492 20.7156 13.474 20.0128 13.474C19.7312 13.474 19.503 13.2444 19.503 12.9612C19.503 12.678 19.7312 12.4484 20.0128 12.4484L22.0522 12.4484C22.7549 12.4484 23.3268 11.8732 23.3268 11.1663C23.3268 10.4594 22.7549 9.88426 22.0522 9.88426L19.503 9.88426C19.2214 9.88426 18.9931 9.65464 18.9931 9.3714C18.9931 9.08816 19.2214 8.85855 19.503 8.85855C20.2058 8.85855 20.7775 8.28344 20.7775 7.5765C20.7775 6.86956 20.2058 6.29445 19.503 6.29445L11.9197 6.29445C11.6969 6.29445 11.4999 6.14896 11.4332 5.93506C11.3666 5.72127 11.4456 5.48862 11.6286 5.36061L13.8054 3.83755C14.0278 3.5993 14.1498 3.28972 14.1498 2.96126Z" fill="#222222"/>
<path d="M13.1302 16.5509C13.1302 16.2678 13.3584 16.0381 13.64 16.0381L17.4638 16.0381C17.7454 16.0381 17.9736 16.2677 17.9736 16.5509C17.9736 16.8342 17.7454 17.0638 17.4638 17.0638L13.64 17.0638C13.3584 17.0638 13.1302 16.8342 13.1302 16.5509Z" fill="#222222"/>
<path d="M13.1299 12.9611C13.1299 12.6779 13.3582 12.4482 13.6398 12.4482L20.0127 12.4482C20.2943 12.4482 20.5226 12.6778 20.5226 12.9611C20.5226 13.2443 20.2943 13.4739 20.0127 13.4739L13.6398 13.4739C13.3582 13.4739 13.1299 13.2443 13.1299 12.9611Z" fill="#222222"/>
<path d="M13.13 9.37149C13.13 9.08826 13.3583 8.85864 13.6399 8.85864L19.503 8.85864C19.7845 8.85864 20.0128 9.08826 20.0128 9.3715C20.0128 9.65473 19.7846 9.88435 19.503 9.88435L13.6399 9.88435C13.3583 9.88435 13.13 9.65473 13.13 9.37149Z" fill="#222222"/>
<path d="M4.46283 13.9868C4.46283 13.7639 4.60841 13.5588 4.83195 13.4941C7.24648 12.796 8.77718 11.3187 9.38146 9.10318C9.84335 7.4095 9.57287 5.89125 9.56996 5.87614C9.54261 5.72639 9.58239 5.57154 9.67923 5.45438C9.77606 5.33722 9.91966 5.26904 10.0711 5.26904L15.9342 5.26904C16.2158 5.26904 16.4441 5.49866 16.4441 5.7819C16.4441 6.06514 16.2158 6.29469 15.9342 6.29469L10.6453 6.29469C10.697 6.95924 10.7072 8.09424 10.3756 9.33495C9.89666 11.1265 8.59501 13.4734 5.11371 14.4799C4.84312 14.5582 4.56065 14.4009 4.4828 14.1287C4.46927 14.0813 4.46283 14.0336 4.46283 13.9868Z" fill="#222222"/>
<path d="M13.13 18.0895L13.13 7.83311C13.13 7.54987 13.3583 7.32031 13.6399 7.32031C13.9215 7.32031 14.1498 7.54987 14.1498 7.83311L14.1498 18.0896C14.1498 18.3727 13.9215 18.6024 13.6399 18.6024C13.3583 18.6024 13.13 18.3727 13.13 18.0895Z" fill="#222222"/>
</svg>
