<svg width="33" height="22" viewBox="0 0 33 22" fill="none" xmlns="http://www.w3.org/2000/svg">
<path d="M12.699 7.03079C12.6139 7.03079 12.5288 6.99818 12.4638 6.93297L9.95263 4.41109C9.82276 4.2806 9.82276 4.06905 9.95263 3.93862C10.0826 3.80819 10.2932 3.80825 10.4231 3.93862L12.9343 6.46049C13.0642 6.59099 13.0642 6.80254 12.9343 6.93297C12.8694 6.99818 12.7841 7.03079 12.699 7.03079Z" fill="#222222" stroke="#222222" stroke-width="0.2"/>
<path d="M10.3552 9.38489C10.2701 9.38489 10.1849 9.35228 10.12 9.28707L5.93469 5.08397C5.80481 4.95347 5.80481 4.74192 5.93469 4.61149C6.06463 4.48106 6.27522 4.48106 6.40516 4.61149L10.5905 8.81459C10.7203 8.94509 10.7203 9.15664 10.5905 9.28707C10.5255 9.35222 10.4404 9.38489 10.3552 9.38489Z" fill="#222222" stroke="#222222" stroke-width="0.2"/>
<path d="M8.01152 11.7387C7.92642 11.7387 7.84125 11.7061 7.77631 11.6408L3.92583 7.77391C3.79588 7.64341 3.79588 7.43187 3.92583 7.30144C4.05577 7.17101 4.26636 7.17101 4.3963 7.30144L8.24679 11.1684C8.37666 11.2988 8.37666 11.5103 8.24679 11.6408C8.18178 11.706 8.09668 11.7387 8.01152 11.7387Z" fill="#222222" stroke="#222222" stroke-width="0.2"/>
<path d="M8.01152 16.4457C7.92642 16.4457 7.84125 16.4131 7.77631 16.3478L3.92583 12.4809C3.79588 12.3505 3.79588 12.1389 3.92583 12.0085C4.05577 11.878 4.26636 11.878 4.3963 12.0085L8.24679 15.8754C8.37666 16.0058 8.37666 16.2174 8.24679 16.3478C8.18178 16.4131 8.09668 16.4457 8.01152 16.4457Z" fill="#222222" stroke="#222222" stroke-width="0.2"/>
<path d="M14.2583 20.9025C14.2581 20.9025 14.2582 20.9025 14.2581 20.9025C13.4184 20.9024 12.5367 20.6644 11.8309 20.2483L4.28026 18.1099C3.20517 18.0842 2.33835 17.1979 2.33835 16.1121C2.33835 15.0102 3.23106 14.1137 4.3283 14.1137C4.34799 14.1137 4.36769 14.1154 4.38705 14.1189L5.81197 14.3759L1.5819 10.1277C0.806032 9.34847 0.806032 8.08065 1.5819 7.30148C1.93088 6.95101 2.38665 6.74675 2.87542 6.71935L2.25152 6.09279C1.47565 5.31355 1.47565 4.04573 2.25152 3.26656C2.62738 2.8891 3.12706 2.68123 3.65861 2.68123C4.1901 2.68123 4.68985 2.8891 5.06571 3.26656L5.35487 3.55695C5.38215 3.06604 5.58562 2.60833 5.93453 2.25786C6.31039 1.8804 6.81014 1.67253 7.34163 1.67253C7.87318 1.67253 8.37286 1.8804 8.74872 2.25786L9.37363 2.88543C9.40011 2.41201 9.59306 1.94622 9.95235 1.58533C10.3282 1.20787 10.828 1 11.3595 1C11.891 1 12.3908 1.20787 12.7665 1.58533L16.8353 5.67143C16.9653 5.80193 16.9653 6.01348 16.8353 6.14391L12.6485 10.3485C11.498 11.504 11.1011 13.7917 12.3137 15.0095L16.7383 19.4529C16.8007 19.5156 16.8357 19.6005 16.8357 19.6891C16.8357 19.7777 16.8007 19.8627 16.7383 19.9253L16.6617 20.0022C16.0837 20.5827 15.23 20.9025 14.2583 20.9025ZM4.30028 14.7821C3.58276 14.7972 3.0037 15.388 3.0037 16.1121C3.0037 16.8456 3.59793 17.4423 4.3283 17.4423C4.35884 17.4423 4.38918 17.4465 4.41852 17.4549L12.0535 19.6171C12.0821 19.6252 12.1094 19.6371 12.1349 19.6525C12.7464 20.0222 13.5203 20.2343 14.2581 20.2343C14.2581 20.2343 14.2582 20.2343 14.2583 20.2343C14.7678 20.2343 15.4661 20.1338 16.0243 19.6806L11.8434 15.4818C10.3418 13.9739 10.7817 11.2785 12.1782 9.87601L16.1298 5.90764L12.2962 2.05774C12.046 1.8065 11.7134 1.66812 11.3596 1.66812C11.0058 1.66812 10.6732 1.8065 10.423 2.05774C9.90651 2.57639 9.90651 3.42038 10.423 3.93896C10.488 4.00424 10.5204 4.0897 10.5204 4.17523C10.5204 4.26076 10.488 4.34622 10.423 4.4115C10.293 4.54193 10.0824 4.54193 9.95249 4.4115L8.27838 2.73027C8.02821 2.47903 7.69553 2.34065 7.34176 2.34065C6.98799 2.34065 6.65531 2.47903 6.40514 2.73027C6.15497 2.98151 6.01717 3.3156 6.01717 3.67088C6.01717 4.02542 6.15437 4.35871 6.40348 4.60975L6.40514 4.61149C6.53508 4.74199 6.53508 4.95353 6.40514 5.08396C6.2752 5.21439 6.06461 5.21439 5.93467 5.08396L4.59537 3.73897C4.3452 3.48773 4.01252 3.34935 3.65875 3.34935C3.30498 3.34935 2.9723 3.48773 2.72213 3.73897C2.20561 4.25762 2.20561 5.1016 2.72213 5.62025L4.39616 7.30148C4.52604 7.43198 4.52604 7.64352 4.39616 7.77395C4.26622 7.90445 4.05563 7.90445 3.92569 7.77395L3.92396 7.77222C3.67398 7.52205 3.3421 7.38433 2.98907 7.38433C2.6353 7.38433 2.30262 7.52272 2.05244 7.77395C1.53593 8.2926 1.53593 9.13652 2.05244 9.65517L7.0327 14.6566C7.1355 14.7599 7.15959 14.9182 7.09232 15.0476C7.02492 15.177 6.8818 15.2476 6.73875 15.2216L4.30028 14.7821Z" fill="#222222" stroke="#222222" stroke-width="0.2"/>
<path d="M18.8455 20.9997C17.8736 20.9997 17.0199 20.68 16.4418 20.0994L11.8435 15.4816C10.3419 13.9736 10.7819 11.2783 12.1783 9.87575L20.3369 1.6825C20.7127 1.30504 21.2125 1.09717 21.744 1.09717C22.2755 1.09717 22.7753 1.30504 23.1511 1.6825C23.5104 2.04339 23.7034 2.50918 23.7298 2.98259L24.3547 2.35503C24.7305 1.97757 25.2303 1.7697 25.7618 1.7697C26.2933 1.7697 26.7931 1.97757 27.1689 2.35503C27.5179 2.7055 27.7213 3.1632 27.7486 3.65412L28.0378 3.36379C28.4136 2.98634 28.9133 2.77846 29.4449 2.77846C29.9764 2.77846 30.4761 2.98634 30.852 3.36379C31.2277 3.74119 31.4348 4.24306 31.4348 4.77688C31.4348 5.31069 31.2278 5.8125 30.8519 6.18996L30.228 6.81652C30.7168 6.84398 31.1726 7.04825 31.5215 7.39871C31.8974 7.77617 32.1044 8.27798 32.1044 8.8118C32.1044 9.34561 31.8974 9.84749 31.5215 10.2249L27.2915 14.473L28.7164 14.2161C28.7358 14.2126 28.7555 14.2108 28.7752 14.2108C29.8724 14.2108 30.7651 15.1073 30.7651 16.2092C30.7651 17.295 29.8984 18.1814 28.8231 18.2071L21.2726 20.3455C20.5669 20.7617 19.6851 20.9997 18.8455 20.9997ZM21.744 1.76536C21.3902 1.76536 21.0576 1.90374 20.8073 2.15498L12.6488 10.3482C11.4983 11.5037 11.1014 13.7913 12.314 15.0092L16.9122 19.627C17.4921 20.2093 18.2836 20.3316 18.8455 20.3316C19.5833 20.3316 20.3572 20.1195 20.9688 19.7497C20.9942 19.7343 21.0215 19.7224 21.0501 19.7144L28.685 17.5521C28.7144 17.5438 28.7448 17.5395 28.7753 17.5395C29.5057 17.5395 30.0999 16.9428 30.0999 16.2093C30.0999 15.4852 29.5208 14.8944 28.8033 14.8794L26.3651 15.3189C26.2221 15.3449 26.0787 15.2743 26.0114 15.1449C25.9441 15.0155 25.9682 14.8572 26.071 14.7539L31.0512 9.75247C31.3014 9.50123 31.4392 9.16721 31.4392 8.81186C31.4392 8.45659 31.3014 8.12249 31.0512 7.87126C30.801 7.62002 30.4684 7.48164 30.1146 7.48164C29.7608 7.48164 29.4282 7.62002 29.1779 7.87126C29.0481 8.00169 28.8373 8.00169 28.7075 7.87126C28.5776 7.74076 28.5776 7.52921 28.7075 7.39878L30.3816 5.71755C30.6318 5.46631 30.7696 5.13222 30.7696 4.77695C30.7696 4.4216 30.6318 4.08758 30.3816 3.83634C30.1314 3.5851 29.7988 3.44672 29.445 3.44672C29.0912 3.44672 28.7585 3.5851 28.5083 3.83634L27.169 5.18133C27.0392 5.31176 26.8284 5.31176 26.6986 5.18133C26.5687 5.05084 26.5687 4.83929 26.6986 4.70886C26.9488 4.45762 27.0866 4.12352 27.0866 3.76825C27.0866 3.41291 26.9488 3.07888 26.6986 2.82764C26.4484 2.5764 26.1157 2.43802 25.7619 2.43802C25.4081 2.43802 25.0755 2.5764 24.8253 2.82764L23.1512 4.50887C23.0214 4.6393 22.8106 4.6393 22.6808 4.50887C22.6158 4.44359 22.5833 4.35812 22.5833 4.2726C22.5833 4.18707 22.6158 4.10161 22.6808 4.03633C22.931 3.78509 23.0687 3.45099 23.0687 3.09572C23.0687 2.74038 22.931 2.40635 22.6808 2.15511C22.4305 1.90374 22.0979 1.76536 21.744 1.76536Z" fill="#222222" stroke="#222222" stroke-width="0.2"/>
<path d="M20.4046 7.12896C20.3195 7.12896 20.2342 7.09636 20.1694 7.03114C20.0394 6.90064 20.0394 6.6891 20.1694 6.55867L22.6805 4.03679C22.8104 3.90636 23.0211 3.90636 23.151 4.03679C23.2809 4.16728 23.2809 4.37883 23.151 4.50926L20.6398 7.03114C20.5749 7.09636 20.4897 7.12896 20.4046 7.12896Z" fill="#222222" stroke="#222222" stroke-width="0.2"/>
<path d="M22.7484 9.48304C22.6633 9.48304 22.5781 9.45043 22.5132 9.38521C22.3833 9.25472 22.3833 9.04317 22.5132 8.91274L26.6985 4.70964C26.8283 4.57921 27.0391 4.57921 27.1689 4.70964C27.2989 4.84014 27.2989 5.05168 27.1689 5.18211L22.9836 9.38521C22.9188 9.45036 22.8335 9.48304 22.7484 9.48304Z" fill="#222222" stroke="#222222" stroke-width="0.2"/>
<path d="M25.0922 11.8363C25.0071 11.8363 24.9219 11.8037 24.857 11.7384C24.727 11.608 24.727 11.3965 24.857 11.266L28.7074 7.39909C28.8372 7.26866 29.048 7.26866 29.1778 7.39909C29.3077 7.52959 29.3077 7.74114 29.1778 7.87157L25.3274 11.7384C25.2624 11.8037 25.1773 11.8363 25.0922 11.8363Z" fill="#222222" stroke="#222222" stroke-width="0.2"/>
<path d="M25.0922 16.5438C25.0819 16.5438 25.0715 16.5434 25.0612 16.5424C24.9626 16.5331 24.8732 16.4802 24.8174 16.3981C24.8095 16.3865 23.9837 15.1923 22.5492 14.3691C20.6579 13.2836 18.6387 13.3225 16.5478 14.4846C16.3872 14.5739 16.1846 14.5156 16.0956 14.354C16.0067 14.1926 16.0648 13.9893 16.2256 13.8999C19.1116 12.296 21.4492 12.9612 22.9019 13.8019C24.0054 14.4404 24.7636 15.2604 25.1254 15.7039L28.7074 12.1067C28.8372 11.9762 29.048 11.9762 29.1778 12.1067C29.3077 12.2371 29.3077 12.4486 29.1778 12.5791L25.3274 16.4459C25.2647 16.5089 25.18 16.5438 25.0922 16.5438Z" fill="#222222" stroke="#222222" stroke-width="0.2"/>
</svg>
