<svg width="121" height="129" viewBox="0 0 121 129" fill="none" xmlns="http://www.w3.org/2000/svg">
<path d="M112.872 36.3206C112.125 27.0635 105.761 19.2055 96.9165 16.5294C92.1713 0.850944 72.6571 -4.80691 60.2376 6.27237C47.818 -4.80691 28.3039 0.850944 23.5586 16.5294C14.7172 19.2055 8.35452 27.0575 7.60456 36.3206C-0.354397 43.4001 -2.3799 55.1119 3.04303 64.503C-2.43863 73.998 -0.376987 86.0923 8.14067 93.1507C4.93902 106.614 14.5319 119.789 28.2888 120.902C36.552 130.19 50.7983 131.155 60.2376 122.735C69.6618 131.141 83.9096 130.203 92.1848 120.904C105.841 119.805 115.559 106.709 112.334 93.1522C120.845 86.0983 122.92 74.0086 117.432 64.503C122.879 55.0682 120.79 43.367 112.872 36.3206ZM97.0219 88.0561L99.7371 92.098C104.738 99.5435 99.3983 109.682 90.3566 109.682C89.3837 109.682 88.5329 109.511 86.3779 109.248L85.1309 111.454C79.4158 121.577 64.0024 117.454 64.0024 105.917V94.4202C87.3462 92.1387 102.934 69.4079 104.68 66.7514L105.336 67.3297C107.78 69.4817 109.181 72.5689 109.181 75.7991C109.181 85.9899 98.3321 87.2504 97.0219 88.0561ZM35.3427 111.456L34.0957 109.249C31.8925 109.517 31.0869 109.682 30.1185 109.682C21.0783 109.682 15.7352 99.5435 20.738 92.0965L23.4532 88.0546C22.131 87.2429 11.2941 86.0125 11.2941 75.7976C11.2941 69.9395 15.6102 66.9908 15.7954 66.7514C17.5408 69.4094 33.1289 92.1387 56.4727 94.4202V105.917C56.4727 117.451 41.0608 121.58 35.3427 111.456ZM17.0499 43.373L19.2561 42.1261C18.988 39.9229 18.8239 39.1172 18.8239 38.1488C18.8239 31.9202 23.8899 26.8542 30.1185 26.8542H33.8834V23.0893C33.8834 16.8607 38.9494 11.7947 45.178 11.7947C51.4067 11.7947 56.4727 16.8607 56.4727 23.0893V34.5858C33.1289 36.8673 17.5408 59.5981 15.7954 62.2546L15.1388 61.6763C9.24303 56.4853 10.3303 47.168 17.0499 43.373ZM75.2971 11.7947C81.5257 11.7947 86.5917 16.8607 86.5917 23.0893V26.8542H90.3566C96.5852 26.8542 101.651 31.9202 101.651 38.1488C101.651 39.1217 101.481 39.9725 101.217 42.1276C101.883 42.7149 109.181 45.141 109.181 53.2084C109.181 59.0665 104.865 62.0152 104.68 62.2546C102.934 59.5966 87.3462 36.8673 64.0024 34.5858V23.0893C64.0024 16.8607 69.0685 11.7947 75.2971 11.7947ZM23.4306 64.503C45.7488 34.5165 74.7203 34.5014 97.0445 64.503C74.7263 94.4895 45.7548 94.5046 23.4306 64.503Z" fill="#222222"/>
<path d="M60.2375 53.2083C54.0089 53.2083 48.9429 58.2743 48.9429 64.5029C48.9429 70.7315 54.0089 75.7975 60.2375 75.7975C66.4661 75.7975 71.5321 70.7315 71.5321 64.5029C71.5321 58.2743 66.4661 53.2083 60.2375 53.2083ZM60.2375 68.2678C58.1623 68.2678 56.4726 66.5781 56.4726 64.5029C56.4726 62.4277 58.1623 60.738 60.2375 60.738C62.3127 60.738 64.0024 62.4277 64.0024 64.5029C64.0024 66.5781 62.3127 68.2678 60.2375 68.2678Z" fill="#222222"/>
</svg>
