<svg width="60" height="46" viewBox="0 0 60 46" fill="none" xmlns="http://www.w3.org/2000/svg">
<path d="M58.3895 0.0726185L0.788243 21.0882C0.550104 21.1751 0.345631 21.3353 0.204164 21.5457C0.0626965 21.756 -0.00849379 22.0058 0.000808214 22.2592C0.0101102 22.5125 0.0994264 22.7564 0.255941 22.9558C0.412455 23.1553 0.628122 23.3 0.871997 23.3693L16.4794 27.7949L19.9478 43.8143C19.9906 44.0116 20.0824 44.1949 20.2148 44.3472C20.3472 44.4995 20.5159 44.616 20.7052 44.6858C20.8055 44.7226 20.9101 44.7461 21.0165 44.7557C21.2649 44.7764 21.5136 44.7189 21.7278 44.5913C21.7554 44.5759 32.3121 37.3716 32.3121 37.3716L44.7682 45.3273C44.9238 45.4265 45.1001 45.4885 45.2836 45.5084C45.467 45.5284 45.6526 45.5058 45.8258 45.4423C45.9991 45.3789 46.1554 45.2763 46.2826 45.1426C46.4098 45.009 46.5044 44.8478 46.5591 44.6715L59.9461 1.55514C60.0123 1.34169 60.0176 1.11397 59.9614 0.89766C59.9052 0.681352 59.7896 0.485058 59.6278 0.330916C59.4659 0.176773 59.2642 0.0709128 59.0455 0.0252741C58.8267 -0.0203645 58.5995 -0.00396649 58.3895 0.0726185ZM5.0914 22.0724L48.2949 6.30937L17.3172 25.5392L5.0914 22.0724ZM24.7672 31.3881L21.4701 39.5091L18.8506 27.4105L48.958 8.72104L25.0611 30.9615C24.9334 31.0807 24.8331 31.2263 24.7672 31.3881ZM44.7342 42.4591L27.8298 31.6624L56.3187 5.14811L44.7342 42.4591Z" fill="#222222"/>
</svg>
