<svg xmlns="http://www.w3.org/2000/svg" width="48" height="48" fill="#fef288" xmlns:v="https://vecta.io/nano"><path d="M15.809 2.979a.75.75 0 0 0 .263-.049l.682-.244h0a.75.75 0 1 0-.48-1.421l-.728.259a.75.75 0 0 0 .262 1.452v.004zM.136 21.241l-.075.769a.75.75 0 0 0 .668.81h.064a.75.75 0 0 0 .761-.694l.071-.724c.048-.414-.249-.789-.664-.836s-.789.25-.836.664l.011.011zm2.467-5.666a.75.75 0 0 0 .69-.454l.296-.664a.751.751 0 0 0-1.362-.634l-.319.709a.75.75 0 0 0 .694 1.043h0zm-1.717 1.87l-.199.75h0a.751.751 0 0 0 1.455.375l.188-.701a.75.75 0 1 0-1.444-.409v-.015zM13.739 3.11a.75.75 0 0 0-1.009-.311l-.195.109.945 1.174a.75.75 0 0 0 .259-.971h0zM2.116 29.337l-.161-.709a.75.75 0 1 0-1.467.307l.169.75a.751.751 0 1 0 1.459-.356v.008zm2.438 6.025a.75.75 0 0 0-1.294.75l.401.66A.75.75 0 0 0 4.933 36l-.379-.637h0zm-1.301-2.587l-.27-.671h0a.75.75 0 1 0-1.398.54l.27.731a.76.76 0 1 0 1.399-.6h0zM26.779 1.674l.72.101h.116 0c.414.032.776-.278.808-.692a.75.75 0 0 0-.692-.808l-.75-.109c-.414-.051-.791.244-.842.658s.244.791.658.842l-.019.007zm18.579 15.299l.214.694c.115.4.532.631.932.516s.631-.532.516-.932l-.229-.75h0a.75.75 0 1 0-1.425.469l-.007.004zm-2.9-5.82a.75.75 0 1 0 1.23-.859l-.454-.626a.75.75 0 1 0-1.204.896l.427.589h0zm1.824 3.128a.75.75 0 0 0 1.354-.649l-.345-.69h0a.751.751 0 1 0-1.331.694l.323.645h0zm2.554 5.358a.75.75 0 0 0-.627.855l.101.72h0a.75.75 0 0 0 .75.656h.094a.75.75 0 0 0 .653-.836l-.109-.75a.75.75 0 0 0-.863-.645h0zM6.632 38.332a.75.75 0 0 0-1.155.956l.503.589h0a.751.751 0 1 0 1.125-.994l-.472-.552h0zM23.13 1.502h.026.724a.75.75 0 0 0 0-1.5h-.773 0a.75.75 0 1 0 .027 1.5h-.004zm7.196.907l.694.218a.751.751 0 1 0 .461-1.429l-.75-.229a.751.751 0 0 0-.424 1.44h.019zm-10.917-.457a.76.76 0 0 0 .146 0l.713-.131c.412-.067.692-.456.625-.868s-.456-.692-.868-.625l-.75.139h0c-.414.04-.717.409-.677.823s.409.717.823.677l-.011-.015zM.856 26.566a.75.75 0 0 0 .69-.806l-.045-.724h0a.751.751 0 1 0-1.5.068 6.35 6.35 0 0 0 .049.772.75.75 0 0 0 .75.694l.056-.004zM40.153 8.357a.751.751 0 1 0 1.08-1.043l-.547-.547a.75.75 0 0 0-1.043 1.076l.51.514h0zm-3.309-2.821l.589.424a.75.75 0 0 0 .896-1.204l-.63-.454h0a.75.75 0 0 0-.859 1.23l.004.004zM9.16 40.931a.75.75 0 0 0-.99 1.125l.593.503h0c.32.267.796.224 1.063-.096.128-.154.19-.352.172-.552s-.114-.383-.268-.512l-.57-.469h0zm38.381-12.314l.135-.75h0a.75.75 0 1 0-1.481-.24l-.128.713a.75.75 0 1 0 1.473.289v-.011zm-1.265 2.043a.75.75 0 0 0-.949.465l-.24.686h0a.75.75 0 1 0 1.395.529l.259-.75a.75.75 0 0 0-.465-.93h0zm1.707-5.887V24a.75.75 0 1 0-1.5 0v.728a.75.75 0 0 0 .713.773h.038a.75.75 0 0 0 .75-.728zM19.447 46.042l-.709-.157h0a.75.75 0 0 0-.914.553.75.75 0 0 0 .565.906l.75.169a.75.75 0 1 0 .3-1.47h.007zm-3.48-1.013l-.675-.27h0a.751.751 0 0 0-.581 1.384l.72.289a.75.75 0 1 0 .533-1.402h.004zm7.076 1.451a6.28 6.28 0 0 1-.724-.041.752.752 0 0 0-.108 1.5l.773.045h.03 0a.75.75 0 1 0 .03-1.5v-.004zm-10.351-3.014l-.623-.375a.75.75 0 0 0-.795 1.272l.664.401h0a.75.75 0 1 0 .75-1.298h.004zm17.529 2.155l-.701.191h0a.751.751 0 1 0 .375 1.455l.75-.203a.75.75 0 0 0-.416-1.44l-.007-.004zm-3.555.721l-.72.075a.751.751 0 1 0 .064 1.5h.064l.769-.079h0c.414-.049.711-.424.662-.838s-.424-.711-.838-.662v.004zm6.942-1.999l-.66.3a.75.75 0 1 0 .6 1.376l.701-.319h0a.751.751 0 0 0-.642-1.358h0zm.105-40.636l.649.326a.751.751 0 0 0 .694-1.331l-.694-.349a.751.751 0 0 0-.649 1.354h0zM15.4 10.962a.75.75 0 0 0 .878.499c2.787-.634 4.722.6 6.319 1.807h0a9 9 0 0 0 4.14 1.92h.056c.279-.062.565-.09.851-.082a3.66 3.66 0 0 1 2.584 1.155l.203.214c.06-2.145-2.468-2.602-3.424-2.771h0a7.56 7.56 0 0 1-3.507-1.635c-1.283-.964-3.619-2.723-7.021-2.164-.851-.952-4.275-4.89-7.958-9.615a.75.75 0 0 0-1.184.922c3.807 4.882 7.34 8.913 8.063 9.749h0zm29.831 24.206a.75.75 0 1 0-1.328-.697l-.041.071 1.121 1.084.248-.457h0zm-6.838-3.863c.046-1.811-.392-3.601-1.268-5.186-.866-1.459-2.048-2.647-3.188-3.795l-1.057-1.08-3.75-3.941c-.399-.425-.951-.672-1.534-.686a2.09 2.09 0 0 0-1.101.265c-.336.188-.611.467-.797.803l-1.174-1.245a2.17 2.17 0 0 0-1.523-.69 2.13 2.13 0 0 0-1.534.585c-.191.186-.347.405-.461.645a2.17 2.17 0 0 0-1.5-.656 2.13 2.13 0 0 0-1.526.589 2.18 2.18 0 0 0-.068 3.067l.675.716c-.253.106-.486.258-.686.446-.415.398-.654.945-.667 1.52s.203 1.131.599 1.547l5.251 5.561-2.76-.566c-.62-.15-1.274-.012-1.781.375a2.52 2.52 0 0 0-1.005 1.875c-.109 2.194 2.46 2.655 3.428 2.831a7.55 7.55 0 0 1 3.507 1.635c1.125.844 3 2.284 5.738 2.284.426-.001.851-.036 1.271-.105a215.07 215.07 0 0 1 7.939 9.611.751.751 0 0 0 1.185-.923 230.78 230.78 0 0 0-8.06-9.749.75.75 0 0 0-.878-.498c-2.772.63-4.688-.604-6.301-1.811a9 9 0 0 0-4.144-1.916c-1.965-.352-2.216-.825-2.194-1.279a1.03 1.03 0 0 1 .405-.75.65.65 0 0 1 .555-.127l4.212.866c.821.169 1.151-.247 1.256-.435s.285-.69-.296-1.305L18.92 23.18c-.262-.263-.262-.689 0-.952.17-.153.393-.235.622-.229a.62.62 0 0 1 .402.15l6.072 6.427a.75.75 0 1 0 1.091-1.032L19 18.953c-.262-.264-.262-.689 0-.953.129-.122.303-.186.48-.176a.68.68 0 0 1 .48.217l8.097 8.583a.75.75 0 1 0 1.091-1.032l-6.807-7.218a.85.85 0 0 1 .161-.968.63.63 0 0 1 .461-.157.68.68 0 0 1 .48.218l6.698 7.185a.75.75 0 0 0 1.091-1.027l-4.125-4.384c-.262-.263-.262-.689 0-.953a.62.62 0 0 1 .457-.176.68.68 0 0 1 .48.218l3.672 3.892.128.109 1.028 1.05c1.125 1.125 2.19 2.205 2.963 3.506h0a8.65 8.65 0 0 1 1.058 4.327v.037c-1.08 2.531-3.038 2.25-3.263 2.224h0a.75.75 0 1 0-.286 1.474c1.016.199 3.09-.053 4.437-2.168l8.941 8.763h0a.751.751 0 1 0 1.054-1.069l-9.383-9.172h0zm-20.068-3.323l-3.237-3.375c-1.125-1.125-2.19-2.205-2.963-3.506h0a8.65 8.65 0 0 1-1.058-4.327v-.038c1.08-2.531 3.038-2.25 3.263-2.224a.751.751 0 0 0 .285-1.474c-1.013-.199-3.09.053-4.437 2.168L1.254 6.455a.75.75 0 0 0-1.034.034.75.75 0 0 0-.016 1.035l9.376 9.172c-.046 1.811.391 3.601 1.268 5.186.855 1.459 6.256 6.993 6.256 6.993a3.94 3.94 0 0 1 .533-.491 3.78 3.78 0 0 1 .69-.401h-.001z"/></svg>