<svg width="22" height="22" viewBox="0 0 22 22" fill="none" xmlns="http://www.w3.org/2000/svg">
<path d="M1 18.6127C1 19.929 2.11338 21 3.48189 21H14.6724C14.7982 21 14.9195 20.954 15.0114 20.8714L20.8425 15.6284C20.943 15.5381 21 15.4119 21 15.2796V4.86157C21 3.54519 19.8866 2.47423 18.5181 2.47423H16.8852V1.47747C16.8852 1.21381 16.6629 1 16.3888 1C16.1147 1 15.8924 1.21381 15.8924 1.47747V2.47428H6.10759V1.47747C6.10759 1.21381 5.88531 1 5.61121 1C5.33711 1 5.11483 1.21381 5.11483 1.47747V2.47428H3.48189C2.11338 2.47428 1 3.54524 1 4.86162V18.6127ZM1.99276 18.6127V8.65296H20.0072V14.8213H16.0684C14.9736 14.8213 14.0829 15.6781 14.0829 16.7312V20.0451H3.48189C2.66078 20.0451 1.99276 19.4025 1.99276 18.6127ZM19.2244 15.7763L15.0757 19.5064V16.7312C15.0757 16.2046 15.521 15.7763 16.0684 15.7763H19.2244ZM3.48189 3.42917H5.11483V4.85823C5.11483 5.12189 5.33711 5.3357 5.61121 5.3357C5.88531 5.3357 6.10759 5.12189 6.10759 4.85823V3.42917H15.8924V4.85823C15.8924 5.12189 16.1146 5.3357 16.3887 5.3357C16.6628 5.3357 16.8851 5.12189 16.8851 4.85823V3.42917H18.5181C19.3392 3.42917 20.0072 4.07174 20.0072 4.86157V7.69797H1.99276V4.86157C1.99276 4.07174 2.66078 3.42917 3.48189 3.42917Z" fill="white" stroke="white" stroke-width="0.3"/>
</svg>
