<svg width="1027" height="967" viewBox="0 0 1027 967" fill="none" xmlns="http://www.w3.org/2000/svg">
<path d="M782.788 446.869L782.717 446.596L668.068 0.16629L668.025 0H667.854H602.245H602.074L602.031 0.16629L487.382 446.596L487.311 446.869H487.593H557.602H557.772L557.816 446.705L635.049 145.52L712.283 446.705L712.324 446.869H712.497H782.505H782.788Z" fill="white"/>
<path d="M295.477 446.869L295.406 446.596L180.757 0.16629L180.714 0H180.543H114.934H114.763L114.72 0.16629L0.0705949 446.596L0 446.869H0.282449H70.2906H70.4614L70.5047 446.705L147.738 145.52L224.972 446.705L225.013 446.869H225.186H295.194H295.477Z" fill="white"/>
<path d="M730.749 519.157L730.819 519.431L845.468 965.86L845.512 966.026L845.682 966.026L911.292 966.026L911.463 966.026L911.506 965.86L1026.16 519.431L1026.23 519.157L1025.94 519.157L955.935 519.157L955.764 519.157L955.721 519.321L878.487 820.507L801.253 519.321L801.212 519.157L801.039 519.157L731.031 519.157L730.749 519.157Z" fill="white"/>
<path d="M243.437 519.157L243.508 519.431L358.157 965.86L358.2 966.026L358.371 966.026L423.98 966.026L424.151 966.026L424.194 965.86L538.844 519.431L538.914 519.157L538.632 519.157L468.624 519.157L468.453 519.157L468.409 519.321L391.176 820.507L313.942 519.321L313.901 519.157L313.728 519.157L243.72 519.157L243.437 519.157Z" fill="white"/>
</svg>
