<svg width="368" height="65" viewBox="0 0 368 65" fill="none" xmlns="http://www.w3.org/2000/svg">
<path d="M19.6331 29.7369H14.9698L9.81098 9.61942L4.65217 29.7369H0L7.62543 0H11.9962L19.6331 29.7369Z" fill="#222222"/>
<path d="M31.186 34.509H35.8381L28.2124 64.2349H23.842L16.2162 34.509H20.8684L26.0272 54.6151L31.186 34.509Z" fill="#222222"/>
<path d="M52.0468 29.7555H47.3835L42.2247 9.63804L37.0659 29.7555H32.4026L40.0395 0.0186157H44.4099L52.0468 29.7555Z" fill="#222222"/>
<path d="M68.2447 34.509L60.6078 64.2349H56.2367L48.6116 34.509H53.2631L58.4223 54.6151L63.5811 34.509H68.2447Z" fill="#222222"/>
<path d="M96.1742 51.0943H103.895V22.179L112.982 51.0943H118.997L128.136 22.0477V51.0943H135.883V13.1183H124.774L116.003 40.1952L107.31 13.1183H96.1742V51.0943ZM143.419 20.0517H150.878V13.1446H143.419V20.0517ZM143.498 51.0943H150.825V23.9386H143.498V51.0943ZM157.577 51.0943H165.245V33.7083C165.245 31.0558 167.793 29.7164 170.314 29.7164C172.809 29.7164 174.831 31.1871 174.831 34.1285V51.0943H182.5V33.1831C182.5 26.4598 177.956 23.7022 172.993 23.7022C168.712 23.7022 166.348 25.8033 165.114 27.773V23.9386H157.577V51.0943ZM198.981 51.6195C204.339 51.6195 206.702 48.5205 207.674 45.5266L208.541 51.0943H214.108V12.0678H206.413V27.6154C205.1 25.3043 202.106 23.4133 198.219 23.4133C191.233 23.4133 187.425 28.8497 187.425 37.3589C187.425 46.3407 191.68 51.6195 198.981 51.6195ZM200.662 46.1044C197.143 46.1044 194.91 43.2942 194.91 37.2538C194.91 31.2922 197.379 28.981 200.714 28.981C204.522 28.981 206.361 31.7124 206.413 37.2538C206.413 43.6619 204.522 46.1044 200.662 46.1044ZM226.972 51.0943H232.881L237.95 34.6538L242.992 51.0943H249.111L258.041 23.9386H251.107L246.065 40.773H245.855L240.812 23.9386H235.323L230.333 40.773H230.15L224.95 23.9386H218.174L226.972 51.0943ZM273.087 51.6195C281.36 51.6195 286.218 45.8417 286.218 37.674C286.218 28.981 281.123 23.4133 273.113 23.4133C265.051 23.4133 259.956 29.1124 259.956 37.674C259.956 46.2357 265.103 51.6195 273.087 51.6195ZM273.113 45.9205C268.806 45.9205 267.441 41.666 267.441 37.4114C267.441 32.7891 269.043 29.0598 273.113 29.0598C277.368 29.0598 278.707 33.1043 278.707 37.4114C278.707 41.9811 277.132 45.9205 273.113 45.9205ZM291.455 51.0943H299.124V36.2296C299.124 32.579 301.435 30.1629 307.475 30.6881C307.843 30.7144 308.316 30.7406 308.631 30.872V23.5709C308.421 23.4659 307.948 23.4133 307.449 23.4133C303.168 23.4133 300.122 26.2235 298.835 30.373V23.9386H291.455V51.0943ZM313.101 51.0943H320.77V43.2155L324.368 39.3811L331.695 51.0943H339.338L329.122 34.7589L338.996 23.9386H330.75L320.77 35.2053V12.0678H313.101V51.0943ZM353.47 51.6195C360.245 51.6195 364.92 48.5468 364.92 43.1104C364.92 40.6417 363.633 36.676 357.593 35.1791L353.181 34.1811C350.213 33.6033 348.874 32.8417 348.874 31.4235C348.874 29.5063 350.791 28.5608 353.417 28.5608C355.991 28.5608 357.803 29.7427 358.197 31.8437H364.605C364.526 26.5123 360.193 23.4133 353.522 23.4133C346.09 23.4133 342.098 27.1164 342.124 32.0013C342.15 36.4922 345.328 38.7771 350.134 39.775L354.914 40.773C357.383 41.2458 358.354 42.0599 358.354 43.5306C358.354 45.4741 356.358 46.367 353.443 46.367C351.316 46.367 348.611 45.4215 347.902 42.5326H341.284C342.255 48.967 347.797 51.6195 353.47 51.6195Z" fill="black"/>
</svg>
