<svg width="361" height="81" viewBox="0 0 361 81" fill="none" xmlns="http://www.w3.org/2000/svg">
<path d="M25.2606 37.7822H25.3073L25.2957 37.737L15.8588 0.990999L15.8518 0.963814H15.8237H10.4228H10.3947L10.3877 0.991012L0.964948 37.737L0.953364 37.7822H1H6.7487H6.77678L6.78375 37.755L13.1235 13.0324L19.4632 37.755L19.4701 37.7822H19.4982H25.2606Z" fill="#FFFFFF" stroke="#FFFFFF" stroke-width="0.072372"/>
<path d="M39.5364 43.6066H39.5083L39.5013 43.6338L33.1616 68.3423L26.8219 43.6338L26.8149 43.6066H26.7868H21.0381H20.9915L21.0031 43.6518L30.4263 80.3841L30.4333 80.4113H30.4614H35.8619H35.8899L35.8969 80.3841L45.3201 43.6518L45.3317 43.6066H45.2851H39.5364Z" fill="#FFFFFF" stroke="#FFFFFF" stroke-width="0.072372"/>
<path d="M65.3148 37.8049H65.3614L65.3498 37.7597L55.9129 1.01371L55.9059 0.986527H55.8778H50.4773H50.4493L50.4423 1.01371L41.0053 37.7597L40.9937 37.8049H41.0404H46.8028H46.8309L46.8379 37.7777L53.1776 13.0551L59.5173 37.7777L59.5243 37.8049H59.5523H65.3148Z" fill="#FFFFFF" stroke="#FFFFFF" stroke-width="0.072372"/>
<path d="M85.3659 43.6518L85.3775 43.6066H85.3309H79.568H79.5399L79.533 43.6338L73.1933 68.3423L66.8531 43.6338L66.8461 43.6066H66.8181H61.0702H61.0236L61.0352 43.6518L70.4575 80.3841L70.4645 80.4113H70.4926H75.8939H75.922L75.929 80.3841L85.3659 43.6518Z" fill="#FFFFFF" stroke="#FFFFFF" stroke-width="0.072372"/>
<path d="M153.719 18.0555V43.6626H159.864V18.0555H153.719ZM153.642 11.6794C153.642 13.4206 155.076 14.8546 156.817 14.8546C158.584 14.8546 159.992 13.4206 159.992 11.6794C159.992 9.96368 158.584 8.50407 156.817 8.50407C155.076 8.50407 153.642 9.96368 153.642 11.6794Z" fill="#FFFFFF"/>
<path d="M190.323 30.3982C190.246 23.2538 185.791 17.3385 178.723 17.3385C175.702 17.3385 173.295 18.7981 171.579 21.1284V18.0555H165.433V43.6626H171.579V30.5006C171.579 26.5315 173.935 23.2538 177.673 23.2538C181.489 23.2538 184.178 26.5315 184.178 30.5006V43.6626H190.323V30.3982Z" fill="#FFFFFF"/>
<path d="M214.489 5.25197V21.3076C212.825 18.9518 210.315 17.3641 206.986 17.3641C199.56 17.3641 193.517 23.4074 193.517 30.8591C193.517 38.2852 199.56 44.3284 206.986 44.3284C210.315 44.3284 212.825 42.7408 214.489 40.3849V43.6626H220.635V5.25197H214.489ZM199.816 30.8591C199.816 26.6595 203.094 23.2794 207.063 23.2794C211.083 23.2794 213.951 26.6339 213.951 30.8591C213.951 35.033 211.109 38.4132 207.063 38.4132C203.12 38.4132 199.816 35.0587 199.816 30.8591Z" fill="#FFFFFF"/>
<path d="M239.073 43.6626L244.681 26.8388L250.289 43.6626H256.383L264.936 18.0299H258.918L253.31 34.777L247.728 18.0299H241.634L236.077 34.777L230.443 18.0299H224.426L233.004 43.6626H239.073Z" fill="#FFFFFF"/>
<path d="M278.591 44.3284C285.658 44.3284 291.394 38.2852 291.394 30.8591C291.394 23.3818 285.658 17.3385 278.591 17.3385C271.523 17.3385 265.787 23.3818 265.787 30.8591C265.787 38.2852 271.523 44.3284 278.591 44.3284ZM271.933 30.8591C271.933 26.89 274.852 23.4842 278.591 23.4842C282.252 23.4842 285.248 26.8132 285.248 30.8591C285.248 34.8026 282.38 38.1827 278.591 38.1827C274.98 38.1827 271.933 34.9818 271.933 30.8591Z" fill="#FFFFFF"/>
<path d="M310.899 24.2781L311.898 17.7226C310.899 17.4153 309.824 17.3641 308.671 17.3641C305.65 17.3641 303.243 18.8493 301.527 21.1284V18.0811H295.381V43.6626H301.578V30.5262C301.578 26.5315 303.883 23.2794 307.647 23.2794C308.902 23.2794 310.003 23.6635 310.899 24.2781Z" fill="#FFFFFF"/>
<path d="M339.457 43.6626L330.699 28.5032L339.457 18.0555H331.416L322.838 28.2984V5.25197H316.692V43.6626H322.838V37.8498L326.474 33.5222L332.364 43.6626H339.457Z" fill="#FFFFFF"/>
<path d="M350.68 44.1492C355.955 44.5333 360.974 41.1275 360.974 36.211C361.077 31.8322 356.877 29.5019 352.37 28.0423C350.322 27.3765 347.607 27.2229 347.607 25.2255C347.607 23.177 349.528 22.3319 351.884 22.4343C353.676 22.5624 355.392 23.6379 356.135 24.8926L361 22.0246C359.028 18.9774 355.443 17.1849 351.372 17.1849C346.378 17.1849 341.846 20.3346 341.846 25.3792C341.846 29.9628 346.097 32.4467 350.988 33.4454C352.908 33.9063 355.29 34.3417 355.29 36.2878C355.29 38.0803 353.343 38.8997 351.346 38.8997C349.041 38.8997 347.146 37.5169 346.506 36.4158L341.308 38.6436C342.819 41.8958 346.66 43.8675 350.68 44.1492Z" fill="#FFFFFF"/>
<path d="M129.782 43.2154H129.843L129.828 43.1572L120.536 6.977L120.527 6.94198H120.491H115.174H115.137L115.128 6.977L105.837 43.1572L105.822 43.2154H105.882H111.556H111.592L111.601 43.1803L117.832 18.88L124.064 43.1803L124.073 43.2154H124.109H129.782Z" fill="#FFFFFF" stroke="#FFFFFF" stroke-width="0.0932522"/>
<path d="M148.018 43.2154H148.078L148.063 43.1572L138.771 6.977L138.762 6.94198H138.726H133.409H133.373L133.364 6.977L124.072 43.1572L124.057 43.2154H124.117H129.791H129.827L129.836 43.1803L136.067 18.88L142.299 43.1803L142.308 43.2154H142.344H148.018Z" fill="#FFFFFF" stroke="#FFFFFF" stroke-width="0.0932522"/>
</svg>
