<svg width="190" height="44" viewBox="0 0 190 44" fill="none" xmlns="http://www.w3.org/2000/svg">
    <path d="M76.1826 23.248L76.1795 23.2357L71.0425 3.2328L71.0405 3.22535H71.0329H68.0931H68.0855L68.0835 3.2328L62.9465 23.2357L62.9434 23.248H62.956H66.0928H66.1005L66.1024 23.2406L69.563 9.74557L73.0236 23.2406L73.0254 23.248H73.0332H76.17H76.1826Z" fill="#222222"/>
    <path d="M66.1157 23.248L66.1126 23.2357L60.9756 3.2328L60.9736 3.22535H60.966H58.0262H58.0186L58.0166 3.2328L52.8796 23.2357L52.8765 23.248H52.8891H56.0259H56.0336L56.0355 23.2406L59.4961 9.74558L62.9567 23.2406L62.9585 23.248H62.9663H66.1031H66.1157Z" fill="#222222"/>
    <path d="M35.074 20.0226L35.0708 20.0104L29.9338 0.00745086L29.9319 0H29.9242H26.9845H26.9768L26.9749 0.00745086L21.8379 20.0104L21.8347 20.0226H21.8474H24.9842H24.9918L24.9938 20.0153L28.4544 6.52022L31.9149 20.0153L31.9168 20.0226H31.9245H35.0613H35.074Z" fill="#222222"/>
    <path d="M13.2393 20.0226L13.2361 20.0104L8.09909 0.00745086L8.09715 0H8.0895H5.14978H5.14212L5.14018 0.00745086L0.00316311 20.0104L0 20.0226H0.0126555H3.14947H3.15713L3.15907 20.0153L6.61964 6.52022L10.0802 20.0153L10.082 20.0226H10.0898H13.2266H13.2393Z" fill="#222222"/>
    <path d="M32.7422 23.2616L32.7453 23.2739L37.8824 43.2768L37.8843 43.2843L37.8919 43.2843L40.8317 43.2843L40.8393 43.2843L40.8413 43.2768L45.9783 23.2739L45.9814 23.2616L45.9688 23.2616L42.832 23.2616L42.8243 23.2616L42.8224 23.269L39.3618 36.764L35.9012 23.269L35.8994 23.2616L35.8916 23.2616L32.7548 23.2616L32.7422 23.2616Z" fill="#222222"/>
    <path d="M10.9077 23.2616L10.9109 23.2739L16.0479 43.2768L16.0498 43.2843L16.0575 43.2843L18.9972 43.2843L19.0049 43.2843L19.0068 43.2768L24.1438 23.2739L24.147 23.2616L24.1343 23.2616L20.9975 23.2616L20.9898 23.2616L20.9879 23.269L17.5273 36.764L14.0668 23.269L14.0649 23.2616L14.0572 23.2616L10.9204 23.2616L10.9077 23.2616Z" fill="#222222"/>
    <path d="M82.5606 9.89949H79.3572V23.2477H82.5606V9.89949Z" fill="#222222"/>
    <path d="M80.9696 4.92052C80.062 4.92052 79.3145 5.68141 79.3145 6.57572C79.3145 7.48341 80.0619 8.23091 80.9696 8.23091C81.8906 8.23091 82.6249 7.48341 82.6249 6.57572C82.6248 5.68141 81.8906 4.92052 80.9696 4.92052Z" fill="#222222"/>
    <path d="M92.7416 9.52574C91.1666 9.52574 89.9118 10.2866 89.0175 11.5012V9.89949H85.814V23.2477H89.0175V16.3867C89.0175 14.3177 90.2455 12.6092 92.1944 12.6092C94.1833 12.6092 95.5847 14.3177 95.5847 16.3867V23.2477H98.7879V16.3333C98.7479 12.6092 96.4258 9.52574 92.7416 9.52574Z" fill="#222222"/>
    <path d="M112.286 11.5947C111.419 10.3667 110.111 9.53904 108.375 9.53904C104.504 9.53904 101.354 12.6891 101.354 16.5735C101.354 20.4446 104.504 23.5948 108.375 23.5948C110.111 23.5948 111.419 22.7671 112.286 21.5391V23.2477H115.49V3.22535H112.286V11.5947ZM108.415 20.5113C106.36 20.5113 104.638 18.7627 104.638 16.5735C104.638 14.3845 106.347 12.6225 108.415 12.6225C110.511 12.6225 112.006 14.3711 112.006 16.5735C112.006 18.7494 110.524 20.5113 108.415 20.5113Z" fill="#222222"/>
    <path d="M133.027 18.6991L130.117 9.96928H126.94L124.043 18.6991L121.107 9.96928H117.97L122.441 23.3309H125.605L128.529 14.5611L131.452 23.3309H134.628L139.087 9.96928H135.95L133.027 18.6991Z" fill="#222222"/>
    <path d="M146.634 9.57833C142.951 9.57833 139.961 12.7285 139.961 16.6261C139.961 20.4971 142.951 23.6473 146.634 23.6473C150.319 23.6473 153.309 20.4971 153.309 16.6261C153.309 12.7285 150.319 9.57833 146.634 9.57833ZM146.634 20.4438C144.753 20.4438 143.164 18.7752 143.164 16.6261C143.164 14.5572 144.686 12.7819 146.634 12.7819C148.543 12.7819 150.105 14.5171 150.105 16.6261C150.105 18.6818 148.611 20.4438 146.634 20.4438Z" fill="#222222"/>
    <path d="M158.998 11.599V10.0105H155.794V23.3454H159.025V16.4978C159.025 14.4155 160.227 12.7202 162.188 12.7202C162.842 12.7202 163.417 12.9205 163.884 13.2409L164.404 9.82375C163.884 9.66356 163.323 9.63688 162.722 9.63688C161.148 9.63678 159.892 10.411 158.998 11.599Z" fill="#222222"/>
    <path d="M174.579 9.99723L170.107 15.3365V3.32309H166.903V23.3454H170.107V20.3153L172.002 18.0595L175.072 23.3454H178.77L174.205 15.4433L178.77 9.99723H174.579Z" fill="#222222"/>
    <path d="M185.502 15.2031C184.434 14.856 183.018 14.7758 183.018 13.7347C183.018 12.6669 184.02 12.2264 185.248 12.2797C186.182 12.3465 187.077 12.9071 187.464 13.5612L190 12.0662C188.972 10.4778 187.103 9.54334 184.981 9.54334C182.378 9.54334 180.015 11.1852 180.015 13.8148C180.015 16.2041 182.232 17.4989 184.781 18.0195C185.782 18.2597 187.023 18.4867 187.023 19.5012C187.023 20.4356 186.009 20.8627 184.967 20.8627C183.766 20.8627 182.778 20.1419 182.445 19.5679L179.735 20.7292C180.522 22.4244 182.525 23.4523 184.62 23.5991C187.371 23.7992 189.986 22.024 189.986 19.4611C190.04 17.1785 187.851 15.9639 185.502 15.2031Z" fill="#222222"/>
</svg>
