<svg width="617" height="114" viewBox="0 0 617 114" fill="none" xmlns="http://www.w3.org/2000/svg">
<circle cx="15" cy="15" r="12.2" transform="rotate(90 15 15)" fill="#222222" stroke="#222222" stroke-width="5.6"/>
<circle cx="154" cy="15" r="12.2" transform="rotate(90 154 15)" stroke="#222222" stroke-width="5.6"/>
<circle cx="434" cy="15" r="12.2" transform="rotate(90 434 15)" stroke="#222222" stroke-width="5.6"/>
<path fill-rule="evenodd" clip-rule="evenodd" d="M39 14.8C39 13.2536 40.2536 12 41.8 12H41.9852C43.5316 12 44.7852 13.2536 44.7852 14.8C44.7852 16.3464 43.5316 17.6 41.9852 17.6H41.8C40.2536 17.6 39 16.3464 39 14.8ZM66.9655 14.8C66.9655 13.2536 68.2191 12 69.7655 12H69.9507C71.4971 12 72.7507 13.2536 72.7507 14.8C72.7507 16.3464 71.4971 17.6 69.9507 17.6H69.7655C68.2191 17.6 66.9655 16.3464 66.9655 14.8ZM94.931 14.8C94.931 13.2536 96.1846 12 97.731 12H97.9162C99.4626 12 100.716 13.2536 100.716 14.8C100.716 16.3464 99.4626 17.6 97.9162 17.6H97.731C96.1846 17.6 94.931 16.3464 94.931 14.8ZM178.828 14.8C178.828 13.2536 180.081 12 181.628 12H181.813C183.359 12 184.613 13.2536 184.613 14.8C184.613 16.3464 183.359 17.6 181.813 17.6H181.628C180.081 17.6 178.828 16.3464 178.828 14.8ZM206.793 14.8C206.793 13.2536 208.047 12 209.593 12H209.778C211.325 12 212.578 13.2536 212.578 14.8C212.578 16.3464 211.325 17.6 209.778 17.6H209.593C208.047 17.6 206.793 16.3464 206.793 14.8ZM234.759 14.8C234.759 13.2536 236.012 12 237.559 12L237.744 12C239.29 12 240.544 13.2536 240.544 14.8C240.544 16.3464 239.29 17.6 237.744 17.6H237.559C236.012 17.6 234.759 16.3464 234.759 14.8ZM262.724 14.8C262.724 13.2536 263.978 12 265.524 12H265.709C267.256 12 268.509 13.2536 268.509 14.8C268.509 16.3464 267.256 17.6 265.709 17.6H265.524C263.978 17.6 262.724 16.3464 262.724 14.8ZM290.69 14.8C290.69 13.2536 291.943 12 293.49 12H293.675C295.221 12 296.475 13.2536 296.475 14.8C296.475 16.3464 295.221 17.6 293.675 17.6H293.49C291.943 17.6 290.69 16.3464 290.69 14.8ZM318.655 14.8C318.655 13.2536 319.909 12 321.455 12H321.64C323.187 12 324.44 13.2536 324.44 14.8C324.44 16.3464 323.187 17.6 321.64 17.6H321.455C319.909 17.6 318.655 16.3464 318.655 14.8ZM346.621 14.8C346.621 13.2536 347.874 12 349.421 12H349.606C351.152 12 352.406 13.2536 352.406 14.8C352.406 16.3464 351.152 17.6 349.606 17.6H349.421C347.874 17.6 346.621 16.3464 346.621 14.8ZM374.586 14.8C374.586 13.2536 375.84 12 377.386 12H377.571C379.118 12 380.371 13.2536 380.371 14.8C380.371 16.3464 379.118 17.6 377.571 17.6H377.386C375.84 17.6 374.586 16.3464 374.586 14.8ZM402.552 14.8C402.552 13.2536 403.805 12 405.352 12H405.537C407.083 12 408.337 13.2536 408.337 14.8C408.337 16.3464 407.083 17.6 405.537 17.6H405.352C403.805 17.6 402.552 16.3464 402.552 14.8ZM458.483 14.8C458.483 13.2537 459.736 12 461.283 12H461.468C463.014 12 464.268 13.2537 464.268 14.8C464.268 16.3464 463.014 17.6 461.468 17.6H461.283C459.736 17.6 458.483 16.3464 458.483 14.8ZM486.448 14.8001C486.448 13.2537 487.702 12.0001 489.248 12.0001H489.433C490.98 12.0001 492.233 13.2537 492.233 14.8001C492.233 16.3464 490.98 17.6001 489.433 17.6001H489.248C487.702 17.6001 486.448 16.3464 486.448 14.8001ZM514.414 14.8001C514.414 13.2537 515.667 12.0001 517.214 12.0001H517.399C518.945 12.0001 520.199 13.2537 520.199 14.8001C520.199 16.3465 518.945 17.6001 517.399 17.6001H517.214C515.667 17.6001 514.414 16.3465 514.414 14.8001ZM542.379 14.8001C542.379 13.2537 543.633 12.0001 545.179 12.0001H545.364C546.911 12.0001 548.164 13.2537 548.164 14.8001C548.164 16.3465 546.911 17.6001 545.364 17.6001H545.179C543.633 17.6001 542.379 16.3465 542.379 14.8001ZM570.345 14.8001C570.345 13.2537 571.598 12.0001 573.145 12.0001H573.33C574.876 12.0001 576.13 13.2537 576.13 14.8001C576.13 16.3465 574.876 17.6001 573.33 17.6001H573.145C571.598 17.6001 570.345 16.3465 570.345 14.8001ZM598.31 14.8001C598.31 13.2537 599.564 12.0001 601.11 12.0001L601.295 12.0001C602.842 12.0001 604.095 13.2537 604.095 14.8001C604.095 16.3465 602.842 17.6001 601.295 17.6001H601.11C599.564 17.6001 598.31 16.3465 598.31 14.8001Z" fill="#222222"/>
<path d="M124.2 14.8C124.2 13.2536 125.454 12 127 12H127.185C128.732 12 129.985 13.2536 129.985 14.8C129.985 16.3464 128.732 17.6 127.185 17.6H127C125.454 17.6 124.2 16.3464 124.2 14.8Z" fill="#222222"/>
<path d="M8.35724 108H18.6527V106.568H9.95099V99.9801H17.9453V98.5483H9.95099V91.9773H18.4822V90.5455H8.35724V108ZM22.6328 108L24.4993 102.741H31.8288L33.6953 108H35.3658L29.0163 90.5455H27.3118L20.9624 108H22.6328ZM25.0107 101.31L28.1044 92.6165H28.2237L31.3175 101.31H25.0107ZM38.3572 108H39.951V100.943H44.0163C44.2464 100.943 44.468 100.935 44.6811 100.918L48.5078 108H50.3487L46.3175 100.611C48.4908 99.8949 49.6158 98.1051 49.6158 95.7699C49.6158 92.7188 47.6982 90.5455 43.9908 90.5455H38.3572V108ZM39.951 99.4858V91.9773H43.9482C46.7095 91.9773 48.0476 93.4858 48.0476 95.7699C48.0476 98.054 46.7095 99.4858 43.9737 99.4858H39.951ZM53.4979 108H63.4098V106.568H55.0916V90.5455H53.4979V108ZM64.5412 90.5455L70.8395 100.44V108H72.4247V100.44L78.723 90.5455H76.8821L71.7088 98.8295H71.5554L66.3821 90.5455H64.5412ZM88.4666 108H90.0604V101.327H94.1257C97.8161 101.327 99.7251 98.983 99.7251 95.9318C99.7251 92.8807 97.8161 90.5455 94.1001 90.5455H88.4666V108ZM90.0604 99.8949V91.9773H94.0575C96.8189 91.9773 98.157 93.6392 98.157 95.9318C98.157 98.2159 96.8189 99.8949 94.0831 99.8949H90.0604ZM103.467 108H105.06V99.9801H114.964V108H116.558V90.5455H114.964V98.5483H105.06V90.5455H103.467V108ZM121.211 108L123.077 102.741H130.407L132.273 108H133.944L127.594 90.5455H125.89L119.54 108H121.211ZM123.589 101.31L126.683 92.6165H126.802L129.896 101.31H123.589ZM146.413 94.9091H147.955C147.836 92.2585 145.543 90.2983 142.296 90.2983C139.075 90.2983 136.594 92.233 136.594 95.0455C136.594 97.2869 138.18 98.6932 140.915 99.5028L143.004 100.116C145.168 100.747 146.651 101.557 146.651 103.338C146.651 105.435 144.751 106.841 142.143 106.841C139.79 106.841 137.95 105.707 137.779 103.636H136.143C136.33 106.398 138.58 108.298 142.143 108.298C145.927 108.298 148.194 106.159 148.194 103.364C148.194 100.466 145.671 99.3068 143.455 98.6847L141.614 98.1562C139.918 97.679 138.137 96.8182 138.137 94.9773C138.137 93.1023 139.816 91.7301 142.254 91.7301C144.563 91.7301 146.217 92.9659 146.413 94.9091ZM152.029 108H162.325V106.568H153.623V99.9801H161.617V98.5483H153.623V91.9773H162.154V90.5455H152.029V108Z" fill="black"/>
<line x1="15.5" y1="44" x2="15.5" y2="73" stroke="black"/>
<line x1="15" y1="72.5" x2="155" y2="72.5" stroke="black"/>
<line x1="154.5" y1="73" x2="154.5" y2="44" stroke="black"/>
</svg>
